<?xml version="1.0" encoding="UTF-8"?>
<svg width="232px" height="128px" viewBox="0 0 232 128" version="1.1" xmlns="http://www.w3.org/2000/svg" xmlns:xlink="http://www.w3.org/1999/xlink">
    <!-- Generator: Sketch 55.2 (78181) - https://sketchapp.com -->
    <title>Step 1</title>
    <desc>Created with Sketch.</desc>
    <g id="2024-Feb" stroke="none" stroke-width="1" fill="none" fill-rule="evenodd">
        <g id="Artboard-Copy-14" transform="translate(-190.000000, -4006.000000)">
            <g id="Step-1" transform="translate(190.000000, 4005.437500)">
                <rect id="Rectangle-Copy-7" fill="#016DB9" x="2.84217094e-14" y="86" width="231.157595" height="42" rx="14"></rect>
                <g id="Group-2" transform="translate(31.893777, 0.000000)">
                    <g id="Group" transform="translate(0.106223, 0.562500)">
                        <g id="Group-7-Copy">
                            <g id="noun-hard-drive-1138282">
                                <path d="M52.8846618,28.956714 L51.3499329,28.956714 L51.3499329,22.9241068 L46.0127673,22.9241068 L46.0127673,9.04867924 C46.0127673,5.81606356 44.3167098,2.82927663 41.5649529,1.21253789 C38.8123912,-0.404179298 35.4210386,-0.404179298 32.6693241,1.21253789 C29.9167623,2.82925509 28.2215096,5.81606356 28.2215096,9.04867924 L28.2215096,28.956714 L7.11599476,28.956714 C5.22965549,28.9583973 3.42028458,29.7217348 2.08657565,31.0792438 C0.75206188,32.4359125 0.00165204536,34.2765256 0,36.1953256 L0,103.760527 C0.00165458697,105.680231 0.75206188,107.519918 2.08657565,108.87747 C3.4202634,110.234139 5.22969785,110.997458 7.11599476,111 L52.8840052,111 C54.7703445,110.997475 56.5797154,110.234139 57.9134244,108.87747 C59.2479381,107.519961 59.998348,105.680188 60,103.760527 L60,36.1953256 C59.9983454,34.2764825 59.2479381,32.435934 57.9134244,31.0792438 C56.5797366,29.7217348 54.7703022,28.9583945 52.8840052,28.956714 L52.8846618,28.956714 Z M48.9779981,28.956714 L40.6747758,28.956714 L40.6747758,25.3369342 L48.9771509,25.3369342 L48.9779981,28.956714 Z M30.5934867,9.04867924 C30.5934867,6.6778646 31.8369897,4.48716637 33.8547937,3.30218995 C35.8735084,2.11637327 38.3597943,2.11637327 40.3784666,3.30218995 C42.3971814,4.48716637 43.6397736,6.6778646 43.6397736,9.04867924 L43.6397736,22.9241068 L38.3026081,22.9241068 L38.3026081,28.956714 L30.5934867,28.956714 L30.5934867,9.04867924 Z M57.6277264,103.760613 C57.6260718,105.039849 57.1263518,106.266946 56.2369584,107.171621 C55.3475649,108.07634 54.1412965,108.585514 52.8837299,108.586354 L7.11571942,108.586354 C5.85815284,108.585512 4.65184203,108.07634 3.76249095,107.171621 C2.8730975,106.266903 2.37337496,105.039849 2.37172291,103.760613 L2.37172291,36.1954118 C2.3733775,34.9161759 2.8730975,33.6899407 3.76249095,32.7844033 C4.65188439,31.8796846 5.85815284,31.3713512 7.11571942,31.3696707 L28.2212343,31.3696707 L28.2212343,62.1359676 C28.2212343,64.5067822 26.9777313,66.6974805 24.9590801,67.8824569 C22.9411914,69.0682736 20.4540795,69.0682736 18.4354071,67.8824569 C16.4175185,66.6974805 15.1741002,64.5067822 15.1741002,62.1359676 L15.1741002,56.7068365 L19.918012,56.7068365 L19.918012,38.6090148 L8.05717348,38.6090148 L8.05717348,56.7068365 L12.8010853,56.7068365 L12.8010853,62.1359676 L12.8019126,62.1359676 C12.8019126,65.3685833 14.4971441,68.356232 17.249727,69.9721089 C20.0014415,71.5888261 23.3927941,71.5888261 26.1453558,69.9721089 C28.8970704,68.356232 30.5931703,65.3685833 30.5931703,62.1359676 L30.5931703,31.3696707 L52.8851926,31.3696707 C54.1427592,31.3713538 55.34907,31.8796846 56.2384211,32.7844033 C57.1278145,33.6899623 57.6275371,34.9161759 57.6291891,36.1954118 L57.6277264,103.760613 Z M10.4300613,50.6736691 L17.546988,50.6736691 L17.546988,54.2934489 L10.4300613,54.2934489 L10.4300613,50.6736691 Z M15.1739731,44.6410619 L15.1739731,41.0212821 L17.545929,41.0212821 L17.545929,48.2608417 L10.4290023,48.2608417 L10.4298296,41.0212821 L12.8017855,41.0212821 L12.8017855,44.6410619 L15.1739731,44.6410619 Z" id="Shape" fill="#0A404D" fill-rule="nonzero"></path>
                                <path d="M2.06896552,71.8813076 L38.4137931,71.8813076 C40.6229321,71.8813076 42.4137931,73.6721686 42.4137931,75.8813076 L42.4137931,108.881308 L6.06896552,108.881308 C3.85982652,108.881308 2.06896552,107.090447 2.06896552,104.881308 L2.06896552,71.8813076 Z" id="Rectangle" fill="#FFFFFF"></path>
                                <polygon id="Shape" fill="#BBB59A" fill-rule="nonzero" points="9 101.918182 33 101.918182 33 93.8454545 9 93.8454545"></polygon>
                                <polygon id="Path" fill="#BBB59A" fill-rule="nonzero" points="9 87.7909091 33 87.7909091 33 89.8090909 9 89.8090909"></polygon>
                            </g>
                        </g>
                        <rect id="Rectangle" fill="#FFFFFF" x="37.2413793" y="45.0283019" width="18.6206897" height="58.6415094"></rect>
                    </g>
                    <path d="M165.960991,58.171572 C164.872118,57.9238372 164.327681,57.0541466 164.327681,55.5625 C164.327681,54.0708534 164.327681,50.0941687 164.327681,43.6324457 C164.953095,42.1691291 165.497531,41.2325252 165.960991,40.8226338 C166.424451,40.4127424 166.424451,38.4913144 165.960991,35.0583499 C165.232452,34.8017214 163.425262,34.6734072 160.539422,34.6734072 C157.653581,34.6734072 146.614186,34.6734072 127.421235,34.6734072 L117.25154,44.7320071 L117.492763,53.0466939 C117.306365,54.0089274 117.92071,54.7183312 119.335795,55.1749053 C121.458423,55.8597666 123.843092,55.5625 125.093758,55.5625 C126.344424,55.5625 129.106223,58.0795739 129.106223,60.4883677 C129.106223,62.0942302 129.106223,63.8762169 129.106223,65.8343277 L158.223494,65.8343277 L165.960991,58.171572 Z" id="Path-5" fill="#FFFFFF"></path>
                    <g id="noun-memory-card-4297440" transform="translate(114.106223, 31.562500)">
                        <path d="M54.9999607,11.0851993 L54.9999607,3.74345833 C54.9999607,1.68004624 53.3118095,0.00571582296 51.2256334,0 L12.6649967,0 C12.2480526,0 11.8483193,0.164478875 11.5536788,0.456266389 L0.461467337,11.4273991 C0.162442954,11.7161485 -0.00421853257,12.1132685 8.11810089e-05,12.5265863 L8.11810089e-05,23.3006949 C-0.00585001394,24.1421058 0.669952634,24.8335808 1.52036465,24.8561485 L1.52036465,27.5730075 C0.672368511,27.6009809 8.11810089e-05,28.2892552 8.11810089e-05,29.1284611 L8.11810089e-05,65.2564634 C8.11810089e-05,67.3198755 1.68827683,68.9942059 3.77445298,68.9999611 L18.8820869,68.9999611 C19.7327836,69.0058716 20.4318898,68.3374458 20.4547066,67.4963165 L34.5453797,67.4963165 C34.5681965,68.3374458 35.2673027,69.0058716 36.1179995,68.9999611 L51.2256334,68.9999611 C53.3118095,68.9942059 54.9999607,67.3198755 54.9999607,65.2564634 L54.9999607,25.3850027 C55.0059364,24.5435919 54.3301337,23.8521169 53.4797217,23.8295491 L53.4797217,12.6406529 C54.3277179,12.6126795 54.9999607,11.9244052 54.9999607,11.0851993 L54.9999607,11.0851993 Z M51.8547688,9.52974572 C51.0042693,9.55231346 50.3284666,10.2437885 50.3344822,11.0851993 L50.3344822,25.3850027 C50.339419,26.2220377 51.0090621,26.9072104 51.8547688,26.9404563 L51.8547688,65.2564634 C51.8574924,65.4232654 51.792461,65.5841968 51.6741856,65.7031309 C51.5559101,65.822065 51.3942997,65.8890145 51.2256334,65.8890145 L37.6801351,65.8890145 C37.6574069,65.0519294 36.9646278,64.3851075 36.1179995,64.3854093 L18.8820869,64.3854093 C18.0354586,64.3851075 17.3426795,65.0519294 17.3199512,65.8890145 L3.77445298,65.8890145 C3.60578662,65.8890145 3.44417624,65.822065 3.32590081,65.7031309 C3.20762539,65.5841968 3.14259396,65.4232654 3.14531758,65.2564634 L3.14531758,30.6839147 C3.99581708,30.6613469 4.67161973,29.969872 4.66560418,29.1284611 L4.66560418,23.3006949 C4.66066741,22.46366 3.99102422,21.7784873 3.14531758,21.7452413 L3.14531758,13.1695071 L13.3150129,3.11090719 L51.2256334,3.11090719 C51.3942997,3.11090719 51.5559101,3.17785664 51.6741856,3.29679076 C51.792461,3.41572487 51.8574924,3.57665624 51.8547688,3.74345833 L51.8547688,9.52974572 Z" id="Shape" fill="#0A404D" fill-rule="nonzero"></path>
                        <rect id="Rectangle" fill="#FFFFFF" x="3.3865401" y="26.609072" width="48.6046512" height="39"></rect>
                        <path d="M42.9641375,34.2718277 L12.0359488,34.2718277 C9.71985838,34.2718277 7.84229611,36.1288951 7.84229611,38.4197039 L7.84229611,56.5044444 C7.84229611,58.7952532 9.71985838,60.6523207 12.0359488,60.6523207 L42.9641375,60.6523207 C45.280228,60.6523207 47.1578034,58.7952532 47.1578034,56.5044444 L47.1578034,38.4300736 C47.1605754,37.3281928 46.7199752,36.2704983 45.9332107,35.4903764 C45.1464462,34.7102545 44.0781823,34.2718277 42.9641375,34.2718277 Z" id="Shape" fill="#BBB59A" fill-rule="nonzero"></path>
                        <path d="M9.41491587,16.1974568 C10.2834498,16.1974568 10.9875356,15.5010565 10.9875356,14.6420032 L10.9875356,10.8155874 C10.9875356,9.95653406 10.2834498,9.26013376 9.41491587,9.26013376 C8.54638196,9.26013376 7.84229611,9.95653406 7.84229611,10.8155874 L7.84229611,14.6420032 C7.84229611,15.5010565 8.54638196,16.1974568 9.41491587,16.1974568 L9.41491587,16.1974568 Z" id="Path" fill="#0A404D" fill-rule="nonzero"></path>
                        <path d="M15.632006,16.1974568 C16.5005399,16.1974568 17.2046258,15.5010565 17.2046258,14.6420032 L17.2046258,6.74029893 C17.2046258,5.88124563 16.5005399,5.18484533 15.632006,5.18484533 C14.7634721,5.18484533 14.0593862,5.88124563 14.0593862,6.74029893 L14.0593862,14.6420032 C14.0593862,15.5010565 14.7634721,16.1974568 15.632006,16.1974568 Z" id="Path" fill="#0A404D" fill-rule="nonzero"></path>
                        <path d="M21.8595803,16.1974568 C22.7281142,16.1974568 23.4322001,15.5010565 23.4322001,14.6420032 L23.4322001,6.74029893 C23.4322001,5.88124563 22.7281142,5.18484533 21.8595803,5.18484533 C20.9910464,5.18484533 20.2869605,5.88124563 20.2869605,6.74029893 L20.2869605,14.6420032 C20.2869605,15.5010565 20.9910464,16.1974568 21.8595803,16.1974568 L21.8595803,16.1974568 Z" id="Path" fill="#0A404D" fill-rule="nonzero"></path>
                        <path d="M28.0871546,16.1974568 C28.9556885,16.1974568 29.6597743,15.5010565 29.6597743,14.6420032 L29.6597743,6.74029893 C29.6597743,5.88124563 28.9556885,5.18484533 28.0871546,5.18484533 C27.2186206,5.18484533 26.5145348,5.88124563 26.5145348,6.74029893 L26.5145348,14.6420032 C26.5145348,15.5010565 27.2186206,16.1974568 28.0871546,16.1974568 L28.0871546,16.1974568 Z" id="Path" fill="#0A404D" fill-rule="nonzero"></path>
                        <path d="M34.3147288,16.1974568 C35.1832627,16.1974568 35.8873486,15.5010565 35.8873486,14.6420032 L35.8873486,6.74029893 C35.8873486,5.88124563 35.1832627,5.18484533 34.3147288,5.18484533 C33.4461949,5.18484533 32.7421091,5.88124563 32.7421091,6.74029893 L32.7421091,14.6420032 C32.7421091,15.5010565 33.4461949,16.1974568 34.3147288,16.1974568 Z" id="Path" fill="#0A404D" fill-rule="nonzero"></path>
                        <path d="M40.531819,16.1974568 C41.4003529,16.1974568 42.1044387,15.5010565 42.1044387,14.6420032 L42.1044387,6.74029893 C42.1044387,5.88124563 41.4003529,5.18484533 40.531819,5.18484533 C39.6632851,5.18484533 38.9591992,5.88124563 38.9591992,6.74029893 L38.9591992,14.6420032 C38.9591992,15.0545352 39.1248855,15.4501709 39.4198089,15.741875 C39.7147323,16.0335791 40.1147343,16.1974568 40.531819,16.1974568 L40.531819,16.1974568 Z" id="Path" fill="#0A404D" fill-rule="nonzero"></path>
                        <path d="M46.7593933,5.18484533 C45.8908593,5.18484533 45.1867735,5.88124563 45.1867735,6.74029893 L45.1867735,14.6420032 C45.1867735,15.5010565 45.8908593,16.1974568 46.7593933,16.1974568 C47.6279272,16.1974568 48.332013,15.5010565 48.332013,14.6420032 L48.332013,6.74029893 C48.332013,5.88124563 47.6279272,5.18484533 46.7593933,5.18484533 Z" id="Path" fill="#0A404D" fill-rule="nonzero"></path>
                    </g>
                    <g id="noun-gopro-1460563" transform="translate(41.106223, 55.562500)">
                        <path d="M82.2440739,0 L81.6721579,0 L44.2708941,0 L32.8489146,0 L10.617212,0 L6.3288633,0 C2.83915438,0 0,2.83840919 0,6.32720194 L0,57.6727981 C0,61.1615909 2.83915448,64 6.3288633,64 L81.672158,64 C85.1608456,64 88,61.1615908 88,57.6727981 L88,35.3769922 L88,6.32720194 L88,5.75492565 C88,2.58162502 85.4182078,0 82.2440739,0 Z M81.6721579,3.1365442 C83.4318209,3.1365442 84.8626321,4.56800087 84.8626321,6.32720194 L84.8626321,35.3769921 C84.8626321,36.8207009 83.6881617,37.9948629 82.2440739,37.9948629 L44.2708941,37.9948629 C42.8268062,37.9948629 41.6518253,36.8207008 41.6518253,35.3769921 L41.6518253,5.75492565 C41.6518253,4.3112168 42.8268063,3.1365442 44.2708941,3.1365442 L81.6721579,3.1365442 L81.6721579,3.1365442 Z M81.6721579,60.8634558 L6.32886319,60.8634558 C4.5692002,60.8634558 3.13736767,59.4319991 3.13736767,57.6727981 L3.13736767,6.32720194 C3.13736767,4.56800087 4.5692002,3.1365442 6.32886319,3.1365442 L12.1858958,3.1365442 L31.2802306,3.1365442 L39.1511608,3.1365442 C38.7470536,3.92304133 38.5144574,4.81157569 38.5144574,5.75492554 L38.5144574,35.3769921 C38.5144574,38.5502926 41.0967603,41.1314071 44.270894,41.1314071 L82.2440739,41.1314071 C83.18748,41.1314071 84.0761201,40.8989996 84.8626321,40.49519 L84.8626321,57.672798 C84.8626321,59.4319991 83.4318209,60.8634558 81.6721579,60.8634558 Z" id="Shape" fill="#0A404D" fill-rule="nonzero"></path>
                        <path d="M33.3549581,13.1286633 L10.1111685,13.1286633 C9.24461358,13.1286633 8.54248458,13.830608 8.54248458,14.6969354 L8.54248458,38.4073513 C8.54248458,39.2731682 9.24461358,39.9756234 10.1111685,39.9756234 L33.3549581,39.9756234 C34.221513,39.9756234 34.923642,39.2731682 34.923642,38.4073513 L34.923642,14.6969354 C34.923642,13.8306081 34.221513,13.1286633 33.3549581,13.1286633 Z M31.7862742,36.8390792 L11.6798524,36.8390792 L11.6798524,16.2652075 L31.7862742,16.2652075 L31.7862742,36.8390792 Z" id="Shape" fill="#0A404D" fill-rule="nonzero"></path>
                        <path d="M5.13736777,2.75213373 L38.6942025,2.75213373 L38.6942025,61.3009588 L5.13736777,61.3009588 C4.03279827,61.3009588 3.13736777,60.4055283 3.13736777,59.3009588 L3.13736777,4.75213373 C3.13736777,3.64756423 4.03279827,2.75213373 5.13736777,2.75213373 Z" id="Rectangle" fill="#FFFFFF"></path>
                        <rect id="Rectangle" fill="#FFFFFF" x="32.4719427" y="40.7750746" width="53.0588235" height="20.48" rx="1"></rect>
                        <rect id="Rectangle" fill="#BBB59A" x="8.36631406" y="12.1617663" width="27.1905207" height="28.2288978" rx="2"></rect>
                        <rect id="Rectangle" fill="#FFFFFF" x="40.785781" y="3.1365442" width="43.9231488" height="35.5475009" rx="3"></rect>
                        <path d="M63.257484,34.5908142 C70.992648,34.5908142 77.2857665,28.2993476 77.2857665,20.5662142 C77.2857665,12.8330808 70.992648,6.54161422 63.257484,6.54161422 C55.5223201,6.54161422 49.2292016,12.8330808 49.2292016,20.5662142 C49.2292016,28.2993476 55.5223201,34.5908142 63.257484,34.5908142 Z M63.257484,9.67815842 C69.262602,9.67815842 74.1483987,14.5626726 74.1483987,20.5662142 C74.1483987,26.5697558 69.262602,31.45427 63.257484,31.45427 C57.252366,31.45427 52.3665693,26.5697558 52.3665693,20.5662142 C52.3665693,14.5626726 57.252366,9.67815842 63.257484,9.67815842 Z" id="Shape" fill="#BBB59A" fill-rule="nonzero"></path>
                        <path d="M63.257484,25.8958888 C66.1967238,25.8958888 68.5885581,23.5051928 68.5885581,20.5662142 C68.5885581,17.6272356 66.1967237,15.236029 63.257484,15.236029 C60.3182444,15.236029 57.9264099,17.6272356 57.9264099,20.5662142 C57.9264099,23.5051928 60.3182443,25.8958888 63.257484,25.8958888 Z M63.257484,18.3725731 C64.4666779,18.3725731 65.4511903,19.3568271 65.4511903,20.5662141 C65.4511903,21.775601 64.4666779,22.7593445 63.257484,22.7593445 C62.0482902,22.7593445 61.0637777,21.7756009 61.0637777,20.5662141 C61.0637777,19.3568273 62.0482902,18.3725731 63.257484,18.3725731 Z" id="Shape" fill="#BBB59A" fill-rule="nonzero"></path>
                        <path d="M38.6942025,35.3639063 C38.3784309,37.1178774 39.5008138,38.9216001 42.0613511,40.7750746 C44.6218884,42.628549 43.8281777,43.9951908 39.6802189,44.875 L36.834487,39.3325 L38.6942025,35.3639063 Z" id="Path-2" fill="#FFFFFF"></path>
                    </g>
                </g>
            </g>
        </g>
    </g>
</svg>