<?xml version="1.0" encoding="UTF-8"?>
<svg width="232px" height="160px" viewBox="0 0 232 160" version="1.1" xmlns="http://www.w3.org/2000/svg" xmlns:xlink="http://www.w3.org/1999/xlink">
    <!-- Generator: Sketch 55.2 (78181) - https://sketchapp.com -->
    <title>step 3</title>
    <desc>Created with Sketch.</desc>
    <g id="2024-Feb" stroke="none" stroke-width="1" fill="none" fill-rule="evenodd">
        <g id="Artboard-Copy-14" transform="translate(-1236.000000, -3965.000000)">
            <g id="step-3" transform="translate(1236.000000, 3965.000000)">
                <rect id="Rectangle-Copy-12" fill="#016DB9" x="-8.52651283e-14" y="114.4375" width="231.157595" height="45" rx="14"></rect>
                <g id="Group-3" transform="translate(9.000000, 0.000000)">
                    <rect id="Rectangle-Copy-5" stroke="#0A404D" stroke-width="4" fill="#FFFFFF" x="140" y="22" width="52" height="41" rx="14"></rect>
                    <g id="Group-4" transform="translate(152.000000, 26.000000)" fill="#BBB59A">
                        <path d="M7.22486517,13.6085318 L16.2527927,7.22905799 C15.3515744,5.59983493 15.8819674,3.56187241 17.4679011,2.56016972 C19.0538349,1.55846703 21.1563226,1.93345741 22.284614,3.41925726 C23.4129053,4.9050571 23.1835453,6.99671053 21.7591597,8.21114919 C20.334774,9.42558785 18.1994467,9.3500792 16.8672126,8.03816198 C16.833921,8.0053829 16.8014722,7.97198143 16.7698662,7.93795757 L7.74193874,14.3174314 C8.32434277,15.3718618 8.32434277,16.6450556 7.74193874,17.6994861 L16.7698662,24.0780263 C16.8014722,24.043795 16.833921,24.0103935 16.8672126,23.9778219 C18.1960384,22.6703268 20.3249937,22.5956848 21.7449063,23.806808 C23.1648189,25.0179313 23.3932762,27.1033432 22.2683297,28.5847384 C21.1433831,30.0661337 19.047231,30.4402112 17.4657921,29.4417952 C15.8843532,28.4433791 15.3549182,26.4116795 16.2527927,24.7869259 L7.22486517,18.4065185 C7.1932592,18.4403349 7.16081042,18.4737364 7.1275188,18.5067229 C5.72570021,19.8868268 3.45302439,19.8867547 2.05129617,18.5065618 C0.649567944,17.126369 0.649567944,14.8886814 2.05129617,13.5084885 C3.45302439,12.1282956 5.72570021,12.1282235 7.1275188,13.5083274 C7.16081042,13.540899 7.1932592,13.5743005 7.22486517,13.6085318 Z" id="Path" fill-rule="nonzero"></path>
                        <circle id="Oval" cx="20" cy="5" r="5"></circle>
                        <circle id="Oval-Copy" cx="20" cy="27" r="5"></circle>
                        <circle id="Oval-Copy-2" cx="5" cy="16" r="5"></circle>
                    </g>
                    <rect id="Rectangle-Copy-6" stroke="#0A404D" stroke-width="4" fill="#FFFFFF" x="2" y="91" width="52" height="41" rx="14"></rect>
                    <path d="M34.8942225,107.810789 C34.7892723,107.616178 34.6163821,107.474186 34.4136067,107.416065 C34.2108314,107.357944 33.9947913,107.388459 33.8130389,107.500892 L26.5207466,112.007489 L22.5504987,109.554068 C23.0174978,107.820445 22.2011372,105.986609 20.6491253,105.282907 C19.0971134,104.579206 17.2986345,105.227441 16.4603147,106.792703 C15.6219949,108.357964 16.0080672,110.346892 17.3595102,111.425084 C18.7109531,112.503276 20.6018003,112.330894 21.7634544,111.023591 L24.9382179,112.985515 L21.7592343,114.950149 C20.5905832,113.640714 18.6922118,113.472522 17.3383552,114.558469 C15.9844987,115.644416 15.6021511,117.642003 16.4479539,119.210399 C17.2937567,120.778796 19.1009513,121.423343 20.6565028,120.711405 C22.2120543,119.999467 23.0253558,118.155582 22.5504987,116.417413 L26.5207466,113.96354 L33.8126168,118.470589 C34.1911199,118.704487 34.6750878,118.565641 34.8935894,118.160467 C35.1120911,117.755293 34.9823843,117.237223 34.6038812,117.003325 L28.1049634,112.985515 L34.6038812,108.967705 C34.78571,108.855512 34.9184527,108.670588 34.9729032,108.453621 C35.0273537,108.236653 34.9990511,108.005417 34.8942225,107.810789 Z M19.8884886,109.948643 C19.1972631,110.133988 18.4713764,109.805193 18.1548248,109.163368 C17.8382732,108.521544 18.01924,107.745485 18.5870348,107.309877 C19.1548296,106.87427 19.9512794,106.900462 20.4892272,107.372434 C21.0271749,107.844405 21.1567622,108.630676 20.7987255,109.250317 C20.6005204,109.59526 20.2726744,109.846681 19.8881288,109.948643 L19.8884886,109.948643 Z M20.2505928,118.798855 C19.5330762,119.212927 18.6156289,118.967205 18.2013161,118.249993 C17.7870033,117.53278 18.0326852,116.615616 18.7500889,116.201349 C19.4674926,115.787081 20.3850068,116.032553 20.7995151,116.749653 C21.2126005,117.467211 20.9669185,118.383613 20.2502329,118.798496 L20.2505928,118.798855 Z" id="Shape" fill="#BBB59A" fill-rule="nonzero"></path>
                    <rect id="Rectangle-Copy-2" stroke="#0A404D" stroke-width="4" fill="#FFFFFF" x="40" y="37" width="103" height="82" rx="14"></rect>
                    <g id="noun-gps-6432752" transform="translate(64.000000, 49.000000)" fill-rule="nonzero">
                        <g id="Group">
                            <path d="M43.0606061,14.9393939 C34.8136211,14.9485957 28.1304139,21.6318029 28.1212121,29.8787879 C28.1212121,42.6173542 38.0238773,53.44091 41.3901885,56.7521212 C41.3341893,56.8671889 41.3044211,56.993249 41.3030303,57.1212121 C41.3029697,57.3542997 41.3955365,57.5778581 41.5603544,57.7426759 C41.7251722,57.9074938 41.9487306,58 42.1818182,58 L43.0606061,58 C43.1716699,57.9989172 43.2815172,57.9767479 43.3843076,57.9346709 C43.4253938,57.914303 43.4647735,57.8906605 43.5020652,57.8639724 C43.5516354,57.8404412 43.5987919,57.8121302 43.6428645,57.7794418 C44.2294642,57.2602363 58,44.8979933 58,29.8787879 C57.9907982,21.6318029 51.307591,14.9485957 43.0606061,14.9393939 Z" id="Shape" fill="#BBB59A"></path>
                            <path d="M43.0606061,21.969697 C39.1778769,21.969697 36.030303,25.1172708 36.030303,29 C36.030303,32.8827291 39.1778769,36.030303 43.0606061,36.030303 C46.9433352,36.030303 50.0909091,32.8827291 50.0909091,29 C50.0864683,25.1191118 46.9414943,21.9741378 43.0606061,21.969697 L43.0606061,21.969697 Z" id="Shape"></path>
                            <path d="M19.7010709,13.8966945 C20.0067235,14.1152419 20.417519,14.1152419 20.7231715,13.8966945 C20.9175506,13.7576615 25.4848485,10.4356061 25.4848485,5.27272727 C25.4848485,2.36068041 23.1241681,0 20.2121212,0 C17.3000743,0 14.9393939,2.36068041 14.9393939,5.27272727 C14.9393939,10.4356061 19.5066918,13.7576615 19.7010709,13.8966945 Z" id="Shape" fill="#BBB59A"></path>
                            <path d="M4.76167697,36.7451794 C5.06732953,36.9637267 5.47812501,36.9637267 5.78377758,36.7451794 C5.97815667,36.6061463 10.5454545,33.2840909 10.5454545,28.1212121 C10.5454545,25.2091652 8.18477414,22.8484848 5.27272727,22.8484848 C2.36068041,22.8484848 0,25.2091652 0,28.1212121 C0,33.2840909 4.56729788,36.6061463 4.76167697,36.7451794 Z" id="Shape" fill="#BBB59A"></path>
                            <path d="M26.3636364,16.6969697 L27.2424242,16.6969697 C27.7277654,16.6969697 28.1212121,16.303523 28.1212121,15.8181818 C28.1212121,15.3328407 27.7277654,14.9393939 27.2424242,14.9393939 L26.3636364,14.9393939 C25.8782952,14.9393939 25.4848485,15.3328407 25.4848485,15.8181818 C25.4848485,16.303523 25.8782952,16.6969697 26.3636364,16.6969697 Z" id="Path" fill="#0A404D"></path>
                            <path d="M15.7126218,17.2316247 C15.8774688,17.2317993 16.03901,17.1853884 16.1786255,17.0977409 C16.5596317,16.8588539 16.9956966,16.7220221 17.4448797,16.7004057 C17.9296931,16.6764533 18.3035274,16.2644094 18.2803345,15.7795591 C18.2710989,15.5460276 18.1683856,15.3260086 17.9952898,15.1689734 C17.8221939,15.0119382 17.5932436,14.931067 17.3599185,14.9445436 C16.6098782,14.9816737 15.8818013,15.2100377 15.2449133,15.607923 C14.9128078,15.8162018 14.7587602,16.2192202 14.867268,16.5959166 C14.9757757,16.972613 15.3206091,17.2319283 15.7126218,17.2316247 L15.7126218,17.2316247 Z" id="Path" fill="#0A404D"></path>
                            <path d="M1.87214333,43.45795 C1.78721698,43.1557942 1.54754361,42.9218985 1.24340587,42.844369 C0.939268131,42.7668395 0.616871778,42.8574548 0.397660403,43.0820811 C0.178449027,43.3067074 0.0957260523,43.6312185 0.180652424,43.9333742 C0.38058704,44.6389457 0.737827429,45.2900306 1.22553121,45.8377076 C1.54901782,46.1969256 2.10191871,46.2273613 2.46287924,45.9058201 C2.82383976,45.584279 2.8572621,45.0315506 2.53767576,44.6688582 C2.22753648,44.3204466 2.00003931,43.9065251 1.87214333,43.45795 L1.87214333,43.45795 Z" id="Path" fill="#0A404D"></path>
                            <path d="M18.8179858,37.6402424 C18.4110573,37.7375801 17.9941651,37.7871269 17.5757576,37.7878788 L17.2449291,37.7878788 C16.7595879,37.7878788 16.3661412,38.1813255 16.3661412,38.6666666 C16.3661412,39.1520078 16.7595879,39.5454545 17.2449291,39.5454545 L17.5775152,39.5454545 C18.1336436,39.5447333 18.687785,39.4790648 19.2286785,39.3497836 C19.700748,39.2363861 19.991509,38.7617713 19.8781115,38.2897018 C19.7647139,37.8176323 19.2900992,37.5268713 18.8180297,37.6402688 L18.8179858,37.6402424 Z" id="Path" fill="#0A404D"></path>
                            <path d="M22.3799152,26.8227679 C22.5223566,27.1370218 22.8355761,27.3387875 23.1806052,27.3385472 C23.305755,27.338751 23.4294607,27.3118122 23.543193,27.259587 C23.7554295,27.1634239 23.9207499,26.9868578 24.0027579,26.7687607 C24.084766,26.5506637 24.0767385,26.308916 23.9804427,26.0967397 C23.6978183,25.4743415 23.3260368,24.8964321 22.8768082,24.3812139 C22.5578298,24.0153104 22.0026234,23.97727 21.6367198,24.2962483 C21.2708163,24.6152267 21.2327759,25.1704331 21.5517542,25.5363367 C21.8888579,25.9226222 22.1678453,26.3559898 22.3799152,26.8227679 L22.3799152,26.8227679 Z" id="Path" fill="#0A404D"></path>
                            <path d="M23.6577606,15.8181818 C23.6578212,15.5850942 23.5652544,15.3615358 23.4004365,15.196718 C23.2356187,15.0319002 23.0120603,14.9393333 22.7789727,14.9393939 L20.9866409,14.9393939 C20.5012998,14.9393939 20.107853,15.3328407 20.107853,15.8181818 C20.107853,16.303523 20.5012998,16.6969697 20.9866409,16.6969697 L22.7789727,16.6969697 C23.0120603,16.6970303 23.2356187,16.6044635 23.4004365,16.4396456 C23.5652544,16.2748278 23.6578212,16.0512694 23.6577606,15.8181818 L23.6577606,15.8181818 Z" id="Path" fill="#0A404D"></path>
                            <path d="M19.4620582,22.2254242 C18.8423553,22.0545043 18.2023228,21.9684769 17.5594824,21.969697 L17.557303,21.969697 L17.4929406,21.9688182 C17.0104187,21.951568 16.6043622,22.3268545 16.5836134,22.8092386 C16.5628646,23.2916227 16.9351966,23.70039 17.4174176,23.7246364 C17.4753473,23.7263939 17.533277,23.7263939 17.5757576,23.7272112 C18.0542985,23.7267542 18.5306756,23.7914259 18.9917748,23.919446 C19.0685412,23.9404332 19.1477593,23.9511104 19.2273427,23.9511967 C19.6667416,23.9508503 20.0383813,23.6260749 20.0975956,23.1906841 C20.1568099,22.7552933 19.8854049,22.3430623 19.4620582,22.2253803 L19.4620582,22.2254242 Z" id="Path" fill="#0A404D"></path>
                            <path d="M2.57157061,38.3491342 C1.92415971,38.6935696 1.36305725,39.1800038 0.930276061,39.7720148 C0.644473221,40.1642214 0.730730516,40.7138567 1.12293712,40.9996595 C1.51514373,41.2854624 2.06477898,41.1992051 2.35058182,40.8069985 C2.62578397,40.4304927 2.98272029,40.121238 3.39458182,39.9024621 C3.82203757,39.6744475 3.98439018,39.1435398 3.75757322,38.7154474 C3.53075626,38.287355 3.00030515,38.1235166 2.57157939,38.3491342 L2.57157061,38.3491342 Z" id="Path" fill="#0A404D"></path>
                            <path d="M23.7272727,29.087536 C23.4941851,29.0874754 23.2706267,29.1800423 23.1058089,29.3448601 C22.9409911,29.5096779 22.8484242,29.7332363 22.8484848,29.9663239 L22.8484848,31.7582251 C22.8484848,32.2435663 23.2419316,32.637013 23.7272727,32.637013 C24.2126139,32.637013 24.6060606,32.2435663 24.6060606,31.7582251 L24.6060606,29.9663239 C24.6061212,29.7332363 24.5135544,29.5096779 24.3487365,29.3448601 C24.1839187,29.1800423 23.9603603,29.0874754 23.7272727,29.087536 Z" id="Path" fill="#0A404D"></path>
                            <path d="M27.7350288,56.2424242 L25.942697,56.2424242 C25.4573558,56.2424242 25.0639091,56.6358709 25.0639091,57.1212121 C25.0639091,57.6065532 25.4573558,58 25.942697,58 L27.7350288,58 C28.2203699,58 28.6138167,57.6065532 28.6138167,57.1212121 C28.6138167,56.6358709 28.2203699,56.2424242 27.7350288,56.2424242 Z" id="Path" fill="#0A404D"></path>
                            <path d="M23.4805442,34.4563939 C23.0454019,34.2417983 22.5186673,34.4199371 22.3031003,34.8545991 C22.0754856,35.3135854 21.782032,35.7368537 21.432037,36.1109933 C21.1002626,36.4652923 21.1185225,37.0214647 21.4728215,37.3532391 C21.8271206,37.6850134 22.3832929,37.6667536 22.7150673,37.3124545 C23.182504,36.8126438 23.5742743,36.247112 23.8779233,35.6338379 C24.093122,35.1989484 23.9152609,34.6719416 23.4805442,34.4563939 L23.4805442,34.4563939 Z" id="Path" fill="#0A404D"></path>
                            <path d="M21.9551091,54.4659721 C21.7681692,54.2128462 21.4601763,54.078964 21.1475663,54.1149394 C20.8349563,54.1509148 20.5654264,54.3512588 20.4408717,54.6402317 C20.316317,54.9292047 20.3557418,55.262716 20.5442415,55.5146824 C20.9603382,56.0745084 21.4681139,56.5599348 22.04609,56.9504285 C22.4480131,57.2224864 22.9943828,57.1172099 23.2664408,56.7152868 C23.5384987,56.3133637 23.4332222,55.766994 23.0312991,55.494936 C22.6170561,55.2151582 22.253182,54.8672518 21.9551091,54.4659721 L21.9551091,54.4659721 Z" id="Path" fill="#0A404D"></path>
                            <path d="M21.0857594,51.596176 C21.0581662,50.8977894 20.9111487,50.2092894 20.6510845,49.560543 C20.4705012,49.1100396 19.9589044,48.8912262 19.5084011,49.0718095 C19.0578977,49.2523928 18.8390843,49.7639896 19.0196676,50.214493 C19.205052,50.6773008 19.3099667,51.1683908 19.3298797,51.6665494 C19.3488173,52.1375778 19.7359758,52.5097933 20.2073845,52.5101857 C20.2193976,52.5101857 20.2314106,52.5101857 20.2434148,52.5093069 C20.4762237,52.4999722 20.6957822,52.3985099 20.8537634,52.2272527 C21.0117446,52.0559955 21.0951997,51.8289806 21.0857594,51.596176 L21.0857594,51.596176 Z" id="Path" fill="#0A404D"></path>
                            <path d="M33.1115936,56.2424242 L31.3192618,56.2424242 C30.8339207,56.2424242 30.4404739,56.6358709 30.4404739,57.1212121 C30.4404739,57.6065532 30.8339207,58 31.3192618,58 L33.1115936,58 C33.5969348,58 33.9903815,57.6065532 33.9903815,57.1212121 C33.9903815,56.6358709 33.5969348,56.2424242 33.1115936,56.2424242 L33.1115936,56.2424242 Z" id="Path" fill="#0A404D"></path>
                            <path d="M38.4881673,56.2424242 L36.6958267,56.2424242 C36.2104855,56.2424242 35.8170388,56.6358709 35.8170388,57.1212121 C35.8170388,57.6065532 36.2104855,58 36.6958267,58 L38.4881673,58 C38.9735084,58 39.3669552,57.6065532 39.3669552,57.1212121 C39.3669552,56.6358709 38.9735084,56.2424242 38.4881673,56.2424242 Z" id="Path" fill="#0A404D"></path>
                            <path d="M12.2532558,45.6969697 L10.4613545,45.6969697 C9.9760134,45.6969697 9.58256667,46.0904164 9.58256667,46.5757576 C9.58256667,47.0610987 9.9760134,47.4545454 10.4613545,47.4545454 L12.2532558,47.4545454 C12.7385969,47.4545454 13.1320436,47.0610987 13.1320436,46.5757576 C13.1320436,46.0904164 12.7385969,45.6969697 12.2532558,45.6969697 Z" id="Path" fill="#0A404D"></path>
                            <path d="M6.87669091,45.6969697 L5.0843503,45.6969697 C4.59900916,45.6969697 4.20556242,46.0904164 4.20556242,46.5757576 C4.20556242,47.0610987 4.59900916,47.4545454 5.0843503,47.4545454 L6.87669091,47.4545454 C7.36203205,47.4545454 7.75547879,47.0610987 7.75547879,46.5757576 C7.75547879,46.0904164 7.36203205,45.6969697 6.87669091,45.6969697 Z" id="Path" fill="#0A404D"></path>
                            <path d="M17.9443476,46.4804969 C17.3347033,46.1382217 16.6708441,45.9031026 15.9816715,45.7853757 C15.6721325,45.7319315 15.3576108,45.8478163 15.1567441,46.0893184 C14.9558774,46.3308205 14.8992315,46.6611907 15.0081732,46.9558131 C15.117115,47.2504356 15.3750668,47.4644778 15.6847291,47.517203 C16.1759742,47.601239 16.649137,47.7690218 17.0835836,48.0132348 C17.5067148,48.2497796 18.0414743,48.0990866 18.2788414,47.6764162 C18.5162085,47.2537458 18.3665556,46.7186943 17.9443476,46.4805057 L17.9443476,46.4804969 Z" id="Path" fill="#0A404D"></path>
                            <path d="M8.28369182,37.7878788 L6.49179061,37.7878788 C6.00644946,37.7878788 5.61300273,38.1813255 5.61300273,38.6666666 C5.61300273,39.1520078 6.00644946,39.5454545 6.49179061,39.5454545 L8.28369182,39.5454545 C8.76903296,39.5454545 9.1624797,39.1520078 9.1624797,38.6666666 C9.1624797,38.1813255 8.76903296,37.7878788 8.28369182,37.7878788 L8.28369182,37.7878788 Z" id="Path" fill="#0A404D"></path>
                            <path d="M15.2835273,20.6377885 C15.0612888,20.2458404 14.9428347,19.8036276 14.9393939,19.3530709 C14.9409749,19.1189467 14.8477226,18.8941518 14.6808801,18.7298952 C14.5140377,18.5656386 14.2878137,18.4759087 14.0537427,18.4811464 C13.8206311,18.4828362 13.5977534,18.577128 13.4342074,18.7432503 C13.2706615,18.9093726 13.1798645,19.1336968 13.1818182,19.3668064 C13.1878027,20.1172289 13.3854296,20.8536775 13.7559479,21.506277 C13.9108902,21.7795468 14.1999429,21.9493007 14.5140745,21.9515287 C14.828206,21.9537131 15.1196146,21.788036 15.2783799,21.5169694 C15.4371452,21.2459029 15.4391078,20.9106954 15.2835273,20.6377885 L15.2835273,20.6377885 Z" id="Path" fill="#0A404D"></path>
                            <path d="M13.6606873,37.7878788 L11.8683555,37.7878788 C11.3830143,37.7878788 10.9895676,38.1813255 10.9895676,38.6666666 C10.9895676,39.1520078 11.3830143,39.5454545 11.8683555,39.5454545 L13.6606873,39.5454545 C14.1460284,39.5454545 14.5394752,39.1520078 14.5394752,38.6666666 C14.5394752,38.1813255 14.1460284,37.7878788 13.6606873,37.7878788 L13.6606873,37.7878788 Z" id="Path" fill="#0A404D"></path>
                        </g>
                    </g>
                    <rect id="Rectangle" stroke="#0A404D" stroke-width="4" fill="#FFFFFF" x="31" y="2" width="67" height="54" rx="14"></rect>
                    <rect id="Rectangle-Copy-3" stroke="#0A404D" stroke-width="4" fill="#FFFFFF" x="133" y="85" width="82" height="65" rx="14"></rect>
                    <path d="M166.497111,134.999634 C166.085938,134.999634 165.674765,134.895825 165.293685,134.677827 C164.491401,134.221075 164,133.349067 164,132.404319 L164,102.590742 C164,101.64607 164.491401,100.784464 165.293685,100.327674 C166.085938,99.8709227 167.058709,99.8916703 167.830919,100.389961 L190.826667,115.296939 C191.558753,115.774457 192,116.594549 192,117.497745 C192,118.400884 191.558753,119.220976 190.826667,119.688111 L167.830919,134.605529 C167.429777,134.865055 166.958438,135 166.497129,135 L166.497111,134.999634 Z" id="Shape" fill="#BBB59A" fill-rule="nonzero"></path>
                </g>
                <g id="noun-magnifying-glass-1377019" transform="translate(57.000000, 11.000000)" fill="#BBB59A" fill-rule="nonzero">
                    <path d="M33.5170314,30.9936508 L26.7494129,24.2259226 C28.8822948,21.5175097 29.9556196,18.245716 29.9556196,14.9717194 C29.9556196,11.1415014 28.4907433,7.30908058 25.5681498,4.38699048 C22.6466577,1.46545108 18.8165017,1.55598286e-07 14.9874472,1.55598286e-07 C11.1523348,-0.000550403022 7.31336756,1.45994394 4.38691913,4.38699048 C1.46267351,7.31073273 0,11.1453564 0,14.9777773 C0,18.8101982 1.46267351,22.6448219 4.38691913,25.5680134 C7.30896192,28.4906542 11.1413207,29.9555543 14.9720274,29.9555543 C18.2454202,29.9555543 21.517161,28.8822121 24.2255301,26.7492956 L30.9936993,33.5170237 C31.3153112,33.8386409 31.738253,34.0000002 32.1595426,34.0000002 C32.5802815,34.0000002 33.003774,33.8386409 33.3253859,33.5170237 L33.5170314,33.3253751 C33.8386433,33.003758 34,32.579708 34,32.1595129 C34,31.7382165 33.8386433,31.3152679 33.5170314,30.9936508 Z M23.4851877,23.485188 C21.1430634,25.8273123 18.0704479,27.0000002 15,27.0000002 C11.929552,27.0000002 8.85747828,25.8273123 6.51481211,23.485188 C4.17214594,21.1430637 3,18.0704481 3,15.0000002 C3,11.9295522 4.17214594,8.85747848 6.51481211,6.51481229 C8.85747828,4.17214611 11.9300939,3.00000016 15,3.00000016 C18.0704479,3.00000016 21.1430634,4.17214611 23.4851877,6.51481229 C25.827312,8.85747848 27,11.9300941 27,15.0000002 C27.0005417,18.0704481 25.8278539,21.1430637 23.4851877,23.485188 Z" id="Shape"></path>
                </g>
            </g>
        </g>
    </g>
</svg>