<?xml version="1.0" encoding="UTF-8"?>
<svg width="232px" height="139px" viewBox="0 0 232 139" version="1.1" xmlns="http://www.w3.org/2000/svg" xmlns:xlink="http://www.w3.org/1999/xlink">
    <!-- Generator: Sketch 55.2 (78181) - https://sketchapp.com -->
    <title>Step 2</title>
    <desc>Created with Sketch.</desc>
    <g id="2024-Feb" stroke="none" stroke-width="1" fill="none" fill-rule="evenodd">
        <g id="Artboard-Copy-14" transform="translate(-671.000000, -3988.000000)">
            <g id="Step-2" transform="translate(671.000000, 3988.000000)">
                <rect id="Rectangle-Copy-8" fill="#016DB9" x="2.84217094e-14" y="93.4375" width="231.157595" height="45" rx="14"></rect>
                <g id="Group-4-Copy" transform="translate(35.000000, 0.000000)">
                    <g id="Group-8">
                        <path d="M5.75,20.9677419 C4.62466422,10.7168459 7.2385392,5.59139785 13.591625,5.59139785 C23.1212536,5.59139785 136.955274,5.59139785 143.955806,5.59139785 C150.956338,5.59139785 153.8125,10.8517133 153.8125,13.1140287 C153.8125,14.622239 153.8125,17.2401434 153.8125,20.9677419 L5.75,20.9677419 Z" id="Path-6" fill="#FFFFFF"></path>
                        <g id="noun-web-software-3728145" fill="#0A404D" fill-rule="nonzero">
                            <path d="M144.614207,0 L16.3857926,0 C7.35215471,0 0,5.85000836 0,13.0352115 L0,116.97036 C0,124.155563 7.35215471,130 16.3857926,130 L144.614207,130 C153.647845,130 161,124.155563 161,116.969246 L161,13.0340972 C161,5.85000836 153.647845,0 144.614207,0 Z M5.75210336,13.1140287 C5.75210336,8.96560359 10.173716,5.59139785 15.6087974,5.59139785 L143.955806,5.59139785 C149.390887,5.59139785 153.8125,8.96453386 153.8125,13.1140287 L153.8125,20.9677419 L5.75,20.9677419 L5.75210336,13.1140287 Z M155.247897,116.620686 C155.247897,120.914028 150.826284,124.408602 145.391203,124.408602 L17.0441941,124.408602 C11.6091126,124.408602 7.1875,120.914028 7.1875,116.620686 L7.1875,26.5591398 L155.25,26.5591398 L155.247897,116.620686 Z" id="Shape"></path>
                            <path d="M113.611755,11.1827957 L106.325744,11.1827957 C104.763228,11.1827957 103.5,12.1210415 103.5,13.2795699 C103.5,14.438997 104.764439,15.3763441 106.325744,15.3763441 L113.611755,15.3763441 C115.174272,15.3763441 116.4375,14.4380983 116.4375,13.2795699 C116.438682,12.1210415 115.174241,11.1827957 113.611755,11.1827957 L113.611755,11.1827957 Z" id="Path"></path>
                            <path d="M127.986755,11.1827957 L120.700744,11.1827957 C119.138228,11.1827957 117.875,12.1210415 117.875,13.2795699 C117.875,14.438997 119.139439,15.3763441 120.700744,15.3763441 L127.986755,15.3763441 C129.549272,15.3763441 130.8125,14.4380983 130.8125,13.2795699 C130.813682,12.1210415 129.549241,11.1827957 127.986755,11.1827957 L127.986755,11.1827957 Z" id="Path"></path>
                            <path d="M142.361755,11.1827957 L135.075744,11.1827957 C133.513228,11.1827957 132.25,12.1210415 132.25,13.2795699 C132.25,14.438997 133.514439,15.3763441 135.075744,15.3763441 L142.361755,15.3763441 C143.924272,15.3763441 145.1875,14.4380983 145.1875,13.2795699 C145.188682,12.1210415 143.924241,11.1827957 142.361755,11.1827957 L142.361755,11.1827957 Z" id="Path"></path>
                        </g>
                    </g>
                </g>
                <path d="M190.25,26.5591398 C190.25,78.7586322 190.25,107.961072 190.25,114.16646 C190.25,120.371848 187.268325,123.785895 181.304975,124.408602 L52.0441941,124.408602 C45.4730647,123.695222 42.1875,120.871522 42.1875,115.9375 C42.1875,111.003478 42.1875,81.2106915 42.1875,26.5591398" id="Path-8" fill="#FFFFFF"></path>
                <g id="noun-cog-5623035" transform="translate(84.000000, 40.000000)">
                    <path d="M37.0945738,70 L31.7299849,70 C30.2158007,70 29.0731353,68.7559943 28.7663844,67.5850196 L26.796701,60.1421228 L22.2719412,58.2365603 L15.6518781,62.0143939 C14.5277168,62.6591251 13.0003652,62.508414 12.0235301,61.6535396 C11.9850968,61.6202481 10.8395842,60.6293408 9.96559253,59.7751859 C9.05530239,58.8340358 8.07099368,57.6695091 8.02935834,57.6204602 C7.19628959,56.6345674 7.05501342,55.1030981 7.69342624,53.979379 L11.4922316,47.336939 L9.61222302,42.7854948 L2.29396388,40.753563 C1.0246115,40.3998707 0.0612985318,39.1834336 0.00186986579,37.861388 C0,37.8298843 0,37.7980235 0,37.7661627 L0.0125457578,32.3773893 C0.0125457578,32.3440978 0.013257567,32.3104466 0.0150367236,32.2771523 C0.0844294726,30.9404314 1.06589138,29.729363 2.3487663,29.3982248 L9.6538588,27.4031654 L11.5502368,22.8581664 L7.79128828,16.2103535 C7.1639074,15.0844856 7.3048273,13.5641149 8.11974675,12.5843061 C8.16885572,12.5252379 9.16597486,11.3424507 10.0776879,10.4421138 C10.9406482,9.55681285 12.1149865,8.56053542 12.1644511,8.51865118 C13.1516063,7.68704831 14.6704163,7.55101325 15.7817679,8.19037719 L22.3619741,11.9914796 L26.8856636,10.0866324 L28.9226074,2.54456956 C29.2652988,1.3048616 30.4197108,0 31.8897673,0 L37.2586256,0 C38.7286821,0 39.8802469,1.31774889 40.2168893,2.55781488 L42.2065033,10.1714759 L46.7198742,12.0695209 L53.32677,8.29276169 C54.4441709,7.64981744 55.970096,7.79695037 56.9504895,8.64358836 C56.993195,8.67974549 58.1693118,9.68783546 59.0493512,10.5860241 C59.9272616,11.4691769 60.9208209,12.6440896 60.9628112,12.6934913 C61.7958813,13.6797454 61.9371581,15.2112118 61.2987439,16.3349323 L57.5020732,22.9809547 L59.3756777,27.5191514 L66.7056779,29.5521598 C66.7063932,29.5525168 66.7074605,29.5528737 66.7081702,29.5528737 C67.9775216,29.9069231 68.9408372,31.1244367 68.9981281,32.447556 C69,32.478343 69,32.50913 69,32.5399142 L68.9878122,37.9447993 C68.9878122,37.9845361 68.9867448,38.0242728 68.9842525,38.0643664 C68.9038262,39.3681528 67.9355313,40.5670503 66.6818383,40.9150142 L59.3340396,42.9025575 L57.4401554,47.4518513 L61.2008823,54.1036008 C61.831825,55.2359154 61.6855634,56.7609366 60.8596128,57.740387 C60.8112184,57.7973063 59.8173013,58.9629123 58.9575417,59.8403353 C58.035864,60.7596452 56.8665091,61.748051 56.8170418,61.7895781 C55.8306019,62.6211789 54.3085884,62.7554241 53.1993744,62.111761 L46.624505,58.3006359 L42.0901362,60.1958209 L40.0599542,67.6150954 C39.7396825,68.7738936 38.59239,70 37.0945738,70 Z M32.4740899,65.984106 L36.3654174,65.984106 L38.300585,58.9127952 C38.5941671,57.8488569 39.495917,56.8754947 40.5161687,56.504617 L45.1558706,54.5654031 C46.1448029,54.1086152 47.467891,54.1594462 48.4052269,54.6978607 L54.6858017,58.3378681 C55.075108,57.9974205 55.656941,57.476911 56.1309486,57.0043656 C56.579686,56.5461442 57.0971031,55.9665623 57.4401554,55.5752836 L53.8552239,49.2346256 C53.3132464,48.2634053 53.2687638,46.9635596 53.7317402,45.9626288 L55.673309,41.2991337 C56.052657,40.2634779 56.9999568,39.3817572 58.0589939,39.0885652 L64.9971953,37.2116422 L65.0060919,33.246939 L58.0942279,31.3299195 C57.0344756,31.0331493 56.0896681,30.1507119 55.7120972,29.1164896 L53.7861866,24.4515638 C53.3317491,23.4620899 53.3833512,22.1346757 53.9210537,21.1885153 L57.5401517,14.8535829 C57.1981725,14.4623042 56.68004,13.8823654 56.216354,13.4159096 C55.7548027,12.9447991 55.1775967,12.4199905 54.7897099,12.0756063 L48.4934823,15.6748047 C47.5564985,16.2132162 46.233416,16.2629764 45.2476802,15.8033214 L40.6090485,13.8526521 C39.5781204,13.4696062 38.701283,12.5134239 38.4116126,11.4462657 L36.4700409,4.01589469 L32.6623389,4.01589469 L30.6933652,11.3062935 C30.4435531,12.2123573 29.651051,13.3435953 28.4824085,13.7681684 L23.8416393,15.7224173 C22.8502117,16.1849365 21.5267689,16.1383977 20.5905017,15.5996277 L14.3024568,11.9671364 C13.9206193,12.3040017 13.3540911,12.8169978 12.9010801,13.2816644 C12.4146205,13.76244 11.8911498,14.3448846 11.5498803,14.7347312 L15.137304,21.07933 C15.6725184,22.0387336 15.7166447,23.3640004 15.2586531,24.3477486 L13.3085397,29.0209073 C12.9238563,30.0547726 11.9427504,30.9543927 10.8929632,31.2261043 L4.00315894,33.107682 L3.99390623,37.0591406 L10.8986563,38.9765171 C11.9402594,39.2675588 12.9035724,40.1696861 13.2761572,41.189947 L15.2042067,45.8570203 C15.6639767,46.8472137 15.6148685,48.1757017 15.0750284,49.1257959 L11.4516637,55.4618049 C11.7961353,55.8588121 12.3206733,56.4512787 12.7879177,56.9352755 C13.2345218,57.3709484 13.8060319,57.8850154 14.1939202,58.2290384 L20.4997581,54.6305582 C21.476237,54.0899964 22.7608918,54.0452479 23.7434199,54.5024013 L28.3977128,56.4623759 C29.4168972,56.8436312 30.3115276,57.8205743 30.591234,58.8691206 L32.4740899,65.984106 Z M26.9635972,60.211213 C26.9856625,60.2198029 27.0102145,60.2287525 27.0379714,60.238062 C27.0130616,60.2294721 26.988152,60.2205225 26.9635972,60.211213 Z M9.59371825,27.5477909 C9.58197523,27.5753567 9.57094329,27.6068577 9.558844,27.6433732 C9.56951967,27.6111555 9.58126342,27.5792947 9.59371825,27.5477909 Z M22.233508,12.0458944 C22.2036164,12.05735 22.1719449,12.0734588 22.1342213,12.0924319 C22.1669629,12.0759647 22.2000566,12.0605712 22.233508,12.0458944 Z M34.4857664,26.5837326 C32.3096805,26.5837326 30.1343098,27.4124719 28.472087,29.0717412 C26.8557717,30.686619 25.9625635,32.8395514 25.9572057,35.1335285 C25.9522447,37.4282251 26.8361988,39.5901043 28.4461099,41.2207341 C31.7734001,44.5578858 37.192793,44.5718472 40.5193707,41.2440049 C42.1321291,39.6230389 43.0231998,37.4686758 43.0282027,35.1768462 C43.0331665,32.8842998 42.1506318,30.7313674 40.5428582,29.1143422 C38.8763659,27.4278669 36.6807099,26.5837326 34.4857664,26.5837326 Z" id="Shape" fill="#0A404D" fill-rule="nonzero"></path>
                    <circle id="Oval" fill="#BBB59A" cx="34" cy="35" r="13"></circle>
                </g>
                <path id="Path-4" d="M168.971002,70.1440523 C173.341185,67.0558542 176.04344,61.9165595 176.04344,55.5058886 C176.04344,47.0668393 175.164084,43.844824 172.602439,40.4681647 C172.338677,40.120484 171.351817,38.8687439 171.183453,38.6507577 L171.974877,38.0394911 C172.137917,38.2505834 173.12853,39.5070846 173.399125,39.8637719 C176.106841,43.4329757 177.04344,46.8647327 177.04344,55.5058886 C177.04344,62.3711754 174.072291,67.8909594 169.285261,71.142845 L170.526098,75.0865282 L160.590422,73.4951911 L167.824897,66.501453 L168.971002,70.1440523 Z" fill="#0A404D" fill-rule="nonzero"></path>
            </g>
        </g>
    </g>
</svg>