<?xml version="1.0" encoding="UTF-8"?>
<svg width="241px" height="195px" viewBox="0 0 241 195" version="1.1" xmlns="http://www.w3.org/2000/svg" xmlns:xlink="http://www.w3.org/1999/xlink">
    <title>Group 4</title>
    <g id="Exploration-July-2023" stroke="none" stroke-width="1" fill="none" fill-rule="evenodd">
        <g id="section-1.landing-page-copy" transform="translate(-104.000000, -111.000000)">
            <g id="Group-8" transform="translate(104.000000, 111.000000)">
                <rect id="Rectangle" fill="#FFFFFF" x="11" y="40" width="221" height="148" rx="17"></rect>
                <rect id="Rectangle" fill="#FFFFFF" x="6" y="6" width="228" height="28" rx="8"></rect>
                <path d="M33.5686264,119 C35.0344368,119 36.376217,118.766043 37.5939672,118.298128 C38.8117173,117.830214 39.871611,117.167335 40.7736481,116.309492 C41.6756852,115.451649 42.3916772,114.432264 42.9216241,113.251337 C43.4515709,112.07041 43.7616461,110.766934 43.8518499,109.340909 L43.8518499,109.340909 L39.7250299,109.340909 C39.6348262,110.209893 39.4431433,111.023173 39.1499812,111.780749 C38.8568192,112.538324 38.4509024,113.201203 37.9322311,113.769385 C37.4135597,114.337567 36.7934092,114.7832 36.0717795,115.106283 C35.3501498,115.429367 34.5157654,115.590909 33.5686264,115.590909 C32.2832235,115.590909 31.1725902,115.33467 30.2367267,114.822193 C29.3008631,114.309715 28.5397693,113.624554 27.9534452,112.766711 C27.367121,111.908868 26.9330156,110.934046 26.651129,109.842246 C26.3692424,108.750446 26.2282991,107.636364 26.2282991,106.5 C26.2282991,105.363636 26.3692424,104.249554 26.651129,103.157754 C26.9330156,102.065954 27.367121,101.091132 27.9534452,100.233289 C28.5397693,99.3754456 29.3008631,98.6902852 30.2367267,98.1778075 C31.1725902,97.6653298 32.2832235,97.4090909 33.5686264,97.4090909 C34.4481126,97.4090909 35.2204819,97.5260695 35.8857343,97.7600267 C36.5509867,97.993984 37.1316731,98.3226381 37.6277936,98.7459893 C38.123914,99.1693405 38.5298307,99.6706774 38.8455437,100.25 C39.1612567,100.829323 39.4093169,101.464349 39.5897243,102.15508 L39.5897243,102.15508 L43.8180235,102.15508 C43.6827179,100.862745 43.3331785,99.7152406 42.7694053,98.7125668 C42.2056321,97.709893 41.4670892,96.8576203 40.5537765,96.1557487 C39.6404639,95.453877 38.586208,94.9191176 37.3910088,94.5514706 C36.1958096,94.1838235 34.9216821,94 33.5686264,94 C31.7645521,94 30.146523,94.3342246 28.714539,95.0026738 C27.282555,95.671123 26.0704426,96.5735294 25.0782018,97.709893 C24.0859609,98.8462567 23.3248671,100.172014 22.7949202,101.687166 C22.2649734,103.202317 22,104.806595 22,106.5 C22,108.215686 22.2649734,109.831105 22.7949202,111.346257 C23.3248671,112.861408 24.0859609,114.187166 25.0782018,115.323529 C26.0704426,116.459893 27.282555,117.356729 28.714539,118.014037 C30.146523,118.671346 31.7645521,119 33.5686264,119 Z M71.0041073,118.431818 L71.0041073,114.822193 L58.7251267,114.822193 L58.7251267,94.5681818 L54.4968276,94.5681818 L54.4968276,118.431818 L71.0041073,118.431818 Z M82.2579601,118.431818 L84.5243284,112.114973 L94.1648504,112.114973 L96.4312188,118.431818 L100.963955,118.431818 L91.6616974,94.5681818 L87.1627871,94.5681818 L77.8943554,118.431818 L82.2579601,118.431818 Z M93.0485795,108.93984 L85.6744258,108.93984 L89.3276762,98.6791444 L89.4291554,98.6791444 L93.0485795,108.93984 Z M118.678649,119 C119.873848,119 121.046497,118.86074 122.196594,118.582219 C123.346691,118.303699 124.372759,117.863636 125.274796,117.262032 C126.176833,116.660428 126.9041,115.886141 127.456598,114.939171 C128.009096,113.992201 128.285345,112.850267 128.285345,111.513369 C128.285345,110.889483 128.189503,110.265597 127.997821,109.641711 C127.806138,109.017825 127.512976,108.432932 127.118334,107.887032 C126.723693,107.341132 126.23321,106.856506 125.646886,106.433155 C125.060562,106.009804 124.372759,105.675579 123.583476,105.430481 C123.267763,105.341355 122.743454,105.202094 122.010549,105.012701 C121.277644,104.823307 120.527825,104.628342 119.761094,104.427807 C118.994362,104.227273 118.300921,104.043449 117.680771,103.876337 C117.06062,103.709225 116.705443,103.614528 116.615239,103.592246 C115.758304,103.347148 115.064863,102.985071 114.534916,102.506016 C114.004969,102.026961 113.739996,101.364082 113.739996,100.51738 C113.739996,99.9157754 113.880939,99.4144385 114.162826,99.013369 C114.444712,98.6122995 114.79989,98.2947861 115.228357,98.0608289 C115.656825,97.8268717 116.130394,97.6597594 116.649066,97.559492 C117.167737,97.4592246 117.675133,97.4090909 118.171253,97.4090909 C119.637064,97.4090909 120.843538,97.7266043 121.790677,98.361631 C122.737816,98.9966578 123.267763,100.082888 123.380518,101.620321 L123.380518,101.620321 L127.608817,101.620321 C127.608817,100.372549 127.360757,99.2751783 126.864636,98.3282086 C126.368516,97.3812389 125.697626,96.5846702 124.851966,95.9385027 C124.006306,95.2923351 123.025341,94.8077094 121.90907,94.4846257 C120.792799,94.1615419 119.603237,94 118.340385,94 C117.257941,94 116.186772,94.1392602 115.126878,94.4177807 C114.066984,94.6963012 113.119845,95.1252228 112.285461,95.7045455 C111.451077,96.2838681 110.780187,97.0135918 110.272791,97.8937166 C109.765395,98.7738414 109.511697,99.815508 109.511697,101.018717 C109.511697,101.642602 109.596263,102.255348 109.765395,102.856952 C109.934527,103.458556 110.222051,104.026738 110.627968,104.561497 C111.033884,105.096257 111.580744,105.580882 112.268548,106.015374 C112.956351,106.449866 113.818924,106.800802 114.856267,107.068182 C116.525036,107.513815 117.928831,107.875891 119.067653,108.154412 C120.206475,108.432932 121.204353,108.728164 122.061289,109.040107 C122.557409,109.21836 123.014065,109.524733 123.431257,109.959225 C123.84845,110.393717 124.057046,111.067736 124.057046,111.981283 C124.057046,112.426916 123.966842,112.866979 123.786435,113.301471 C123.606027,113.735963 123.312865,114.120321 122.906948,114.454545 C122.501032,114.78877 121.971085,115.06172 121.317108,115.273396 C120.663131,115.485071 119.873848,115.590909 118.94926,115.590909 C118.092325,115.590909 117.297405,115.496212 116.5645,115.306818 C115.831595,115.117424 115.183255,114.816622 114.619482,114.404412 C114.055709,113.992201 113.615966,113.463012 113.300253,112.816845 C112.98454,112.170677 112.826683,111.39082 112.826683,110.477273 L112.826683,110.477273 L108.598384,110.477273 C108.620935,111.947861 108.902822,113.223485 109.444044,114.304144 C109.985266,115.384804 110.706896,116.270499 111.608933,116.96123 C112.51097,117.651961 113.570864,118.164439 114.788614,118.498663 C116.006364,118.832888 117.303043,119 118.678649,119 Z M147.386921,119 C148.58212,119 149.754768,118.86074 150.904866,118.582219 C152.054963,118.303699 153.08103,117.863636 153.983067,117.262032 C154.885105,116.660428 155.612372,115.886141 156.16487,114.939171 C156.717368,113.992201 156.993616,112.850267 156.993616,111.513369 C156.993616,110.889483 156.897775,110.265597 156.706092,109.641711 C156.514409,109.017825 156.221247,108.432932 155.826606,107.887032 C155.431965,107.341132 154.941482,106.856506 154.355158,106.433155 C153.768834,106.009804 153.08103,105.675579 152.291748,105.430481 C151.976035,105.341355 151.451726,105.202094 150.718821,105.012701 C149.985915,104.823307 149.236097,104.628342 148.469365,104.427807 C147.702634,104.227273 147.009193,104.043449 146.389042,103.876337 C145.768892,103.709225 145.413715,103.614528 145.323511,103.592246 C144.466576,103.347148 143.773135,102.985071 143.243188,102.506016 C142.713241,102.026961 142.448267,101.364082 142.448267,100.51738 C142.448267,99.9157754 142.589211,99.4144385 142.871097,99.013369 C143.152984,98.6122995 143.508161,98.2947861 143.936629,98.0608289 C144.365096,97.8268717 144.838666,97.6597594 145.357337,97.559492 C145.876009,97.4592246 146.383404,97.4090909 146.879525,97.4090909 C148.345335,97.4090909 149.55181,97.7266043 150.498949,98.361631 C151.446088,98.9966578 151.976035,100.082888 152.088789,101.620321 L152.088789,101.620321 L156.317089,101.620321 C156.317089,100.372549 156.069028,99.2751783 155.572908,98.3282086 C155.076787,97.3812389 154.405897,96.5846702 153.560238,95.9385027 C152.714578,95.2923351 151.733612,94.8077094 150.617341,94.4846257 C149.50107,94.1615419 148.311509,94 147.048657,94 C145.966212,94 144.895043,94.1392602 143.83515,94.4177807 C142.775256,94.6963012 141.828117,95.1252228 140.993733,95.7045455 C140.159348,96.2838681 139.488458,97.0135918 138.981062,97.8937166 C138.473666,98.7738414 138.219968,99.815508 138.219968,101.018717 C138.219968,101.642602 138.304534,102.255348 138.473666,102.856952 C138.642798,103.458556 138.930323,104.026738 139.336239,104.561497 C139.742156,105.096257 140.289016,105.580882 140.976819,106.015374 C141.664623,106.449866 142.527196,106.800802 143.564538,107.068182 C145.233307,107.513815 146.637102,107.875891 147.775924,108.154412 C148.914746,108.432932 149.912625,108.728164 150.76956,109.040107 C151.265681,109.21836 151.722337,109.524733 152.139529,109.959225 C152.556721,110.393717 152.765317,111.067736 152.765317,111.981283 C152.765317,112.426916 152.675114,112.866979 152.494706,113.301471 C152.314299,113.735963 152.021137,114.120321 151.61522,114.454545 C151.209303,114.78877 150.679356,115.06172 150.025379,115.273396 C149.371403,115.485071 148.58212,115.590909 147.657532,115.590909 C146.800597,115.590909 146.005676,115.496212 145.272771,115.306818 C144.539866,115.117424 143.891527,114.816622 143.327754,114.404412 C142.76398,113.992201 142.324237,113.463012 142.008524,112.816845 C141.692811,112.170677 141.534955,111.39082 141.534955,110.477273 L141.534955,110.477273 L137.306656,110.477273 C137.329207,111.947861 137.611093,113.223485 138.152316,114.304144 C138.693538,115.384804 139.415168,116.270499 140.317205,116.96123 C141.219242,117.651961 142.279135,118.164439 143.496886,118.498663 C144.714636,118.832888 146.011314,119 147.386921,119 Z M185.093013,118.431818 L185.093013,114.822193 L171.697761,114.822193 L171.697761,107.836898 L183.875263,107.836898 L183.875263,104.427807 L171.697761,104.427807 L171.697761,98.1778075 L184.856228,98.1778075 L184.856228,94.5681818 L167.469462,94.5681818 L167.469462,118.431818 L185.093013,118.431818 Z M199.797158,118.431818 L199.797158,108.605615 L206.021214,108.605615 C206.990904,108.605615 207.785824,108.728164 208.405975,108.973262 C209.026125,109.21836 209.516608,109.602718 209.877423,110.126337 C210.238238,110.649955 210.486298,111.307264 210.621604,112.098262 C210.756909,112.88926 210.824562,113.83066 210.824562,114.92246 C210.824562,115.501783 210.852751,116.103387 210.909128,116.727273 C210.965505,117.351159 211.15155,117.91934 211.467263,118.431818 L211.467263,118.431818 L216,118.431818 C215.548981,117.941622 215.216355,117.122772 215.002121,115.975267 C214.787888,114.827763 214.680771,113.552139 214.680771,112.148396 C214.680771,111.212567 214.562378,110.432709 214.325594,109.808824 C214.088809,109.184938 213.790009,108.67803 213.429194,108.288102 C213.068379,107.898173 212.679376,107.614082 212.262184,107.435829 C211.844991,107.257576 211.455988,107.146168 211.095173,107.101604 L211.095173,107.101604 L211.095173,107.034759 C211.298131,106.967914 211.619482,106.834225 212.059225,106.63369 C212.498968,106.433155 212.944349,106.104501 213.395368,105.647727 C213.846386,105.190954 214.241028,104.589349 214.579291,103.842914 C214.917555,103.09648 215.086687,102.15508 215.086687,101.018717 C215.086687,98.9910873 214.421435,97.4090909 213.09093,96.2727273 C211.760425,95.1363636 209.764668,94.5681818 207.103659,94.5681818 L207.103659,94.5681818 L195.568859,94.5681818 L195.568859,118.431818 L199.797158,118.431818 Z M206.731568,105.430481 L199.797158,105.430481 L199.797158,97.9772727 L206.663916,97.9772727 C207.205138,97.9772727 207.729447,98.021836 208.236843,98.1109626 C208.744239,98.2000891 209.195257,98.3783422 209.589899,98.6457219 C209.98454,98.9131016 210.294615,99.2863191 210.520124,99.7653743 C210.745634,100.24443 210.858388,100.862745 210.858388,101.620321 C210.858388,102.890374 210.508849,103.842914 209.80977,104.477941 C209.110691,105.112968 208.084624,105.430481 206.731568,105.430481 L206.731568,105.430481 Z" id="CLASSER" fill="#0A404D" fill-rule="nonzero"></path>
                <g id="noun-web-software-3728145" fill="#0A404D" fill-rule="nonzero">
                    <path d="M216.472199,0 L24.5278013,0 C11.0053993,0 0,8.77501254 0,19.5528172 L0,175.45554 C0,186.233345 11.0053993,195 24.5278013,195 L216.472199,195 C229.994601,195 241,186.233345 241,175.453869 L241,19.5511458 C241,8.77501254 229.994601,0 216.472199,0 Z M8.61029136,19.671043 C8.61029136,13.4484054 15.2289786,8.38709677 23.3647216,8.38709677 L215.486641,8.38709677 C223.622384,8.38709677 230.241071,13.4468008 230.241071,19.671043 L230.241071,31.4516129 L8.60714286,31.4516129 L8.61029136,19.671043 Z M232.389709,174.931029 C232.389709,181.371042 225.771021,186.612903 217.635278,186.612903 L25.5133588,186.612903 C17.3776158,186.612903 10.7589286,181.371042 10.7589286,174.931029 L10.7589286,39.8387097 L232.392857,39.8387097 L232.389709,174.931029 Z" id="Shape"></path>
                    <path d="M170.064801,16.7741935 L159.158412,16.7741935 C156.81949,16.7741935 154.928571,18.1815622 154.928571,19.9193548 C154.928571,21.6584956 156.821303,23.0645161 159.158412,23.0645161 L170.064801,23.0645161 C172.403723,23.0645161 174.294643,21.6571474 174.294643,19.9193548 C174.296413,18.1815622 172.403678,16.7741935 170.064801,16.7741935 L170.064801,16.7741935 Z" id="Path"></path>
                    <path d="M191.582658,16.7741935 L180.676269,16.7741935 C178.337347,16.7741935 176.446429,18.1815622 176.446429,19.9193548 C176.446429,21.6584956 178.33916,23.0645161 180.676269,23.0645161 L191.582658,23.0645161 C193.921581,23.0645161 195.8125,21.6571474 195.8125,19.9193548 C195.81427,18.1815622 193.921535,16.7741935 191.582658,16.7741935 L191.582658,16.7741935 Z" id="Path"></path>
                    <path d="M213.100515,16.7741935 L202.194126,16.7741935 C199.855204,16.7741935 197.964286,18.1815622 197.964286,19.9193548 C197.964286,21.6584956 199.857017,23.0645161 202.194126,23.0645161 L213.100515,23.0645161 C215.439438,23.0645161 217.330357,21.6571474 217.330357,19.9193548 C217.332126,18.1815622 215.439392,16.7741935 213.100515,16.7741935 L213.100515,16.7741935 Z" id="Path"></path>
                </g>
            </g>
        </g>
    </g>
</svg>