<?xml version="1.0" encoding="UTF-8"?>
<svg width="107px" height="196px" viewBox="0 0 107 196" version="1.1" xmlns="http://www.w3.org/2000/svg" xmlns:xlink="http://www.w3.org/1999/xlink">
    <title>Group 7</title>
    <g id="Exploration-July-2023" stroke="none" stroke-width="1" fill="none" fill-rule="evenodd">
        <g id="section-1.landing-page" transform="translate(-161.000000, -126.000000)">
            <g id="Group-7" transform="translate(161.000000, 126.000000)">
                <rect id="Rectangle" fill="#FFFFFF" x="3" y="55" width="101" height="138" rx="9"></rect>
                <rect id="Rectangle" fill="#FFFFFF" x="71" y="43" width="19" height="9"></rect>
                <g id="noun-hard-drive-1138282" fill="#0A404D" fill-rule="nonzero">
                    <path d="M94.3109802,51.1307743 L91.5740469,51.1307743 L91.5740469,40.478603 L82.0561018,40.478603 L82.0561018,15.977848 C82.0561018,10.2698059 79.0314658,4.99583982 74.124166,2.1410579 C69.215431,-0.713685968 63.1675188,-0.713685968 58.2602946,2.1410579 C53.3515595,4.99580178 50.3283588,10.2698059 50.3283588,15.977848 L50.3283588,51.1307743 L12.6901907,51.1307743 C9.32621895,51.1337466 6.09950749,52.4816218 3.72105991,54.8786647 C1.34117702,57.2742239 0.00294614756,60.5243155 0,63.9124668 L0,183.216786 C0.00295068009,186.606535 1.34117702,189.854991 3.72105991,192.25211 C6.09946972,194.647669 9.32629449,195.995511 12.6901907,196 L94.3098093,196 C97.6737811,195.995542 100.900493,194.647669 103.27894,192.25211 C105.658823,189.855067 106.997054,186.606459 107,183.216786 L107,63.9124668 C106.997049,60.5242394 105.658823,57.2742619 103.27894,54.8786647 C100.90053,52.4816218 97.6737055,51.1337417 94.3098093,51.1307743 L94.3109802,51.1307743 Z M87.3440967,51.1307743 L72.5366835,51.1307743 L72.5366835,44.739091 L87.3425858,44.739091 L87.3440967,51.1307743 Z M54.5583846,15.977848 C54.5583846,11.7915447 56.775965,7.92328476 60.3743821,5.83089397 C63.9744233,3.73701947 68.4082998,3.73701947 72.0082655,5.83089397 C75.6083068,7.92328476 77.824263,11.7915447 77.824263,15.977848 L77.824263,40.478603 L68.3063178,40.478603 L68.3063178,51.1307743 L54.5583846,51.1307743 L54.5583846,15.977848 Z M102.769445,183.216938 C102.766495,185.475769 101.875327,187.642535 100.289242,189.23998 C98.7031575,190.837501 96.5519787,191.736583 94.3093183,191.738066 L12.6896996,191.738066 C10.4470392,191.73658 8.29578495,190.837501 6.70977552,189.23998 C5.12369054,187.642459 4.23251868,185.475769 4.22957253,183.216938 L4.22957253,63.912619 C4.23252321,61.653788 5.12369054,59.488544 6.70977552,57.889577 C8.2958605,56.2920556 10.4470392,55.394458 12.6896996,55.3914906 L50.3278678,55.3914906 L50.3278678,109.717564 C50.3278678,113.903868 48.1102874,117.772128 44.5103595,119.864518 C40.9117914,121.958393 36.4764418,121.958393 32.8764761,119.864518 C29.2779079,117.772128 27.0604786,113.903868 27.0604786,109.717564 L27.0604786,100.130991 L35.5204547,100.130991 L35.5204547,68.1744767 L14.368626,68.1744767 L14.368626,100.130991 L22.8286021,100.130991 L22.8286021,109.717564 L22.8300774,109.717564 C22.8300774,115.425607 25.8532403,120.701094 30.7620131,123.554355 C35.6692374,126.409098 41.7171495,126.409098 46.6258846,123.554355 C51.5331088,120.701094 54.5578203,115.425607 54.5578203,109.717564 L54.5578203,55.3914906 L94.3119268,55.3914906 C96.5545872,55.3944626 98.7058415,56.2920556 100.291851,57.889577 C101.877936,59.488582 102.769108,61.653788 102.772054,63.912619 L102.769445,183.216938 Z M18.600276,89.4778302 L31.2921286,89.4778302 L31.2921286,95.8695134 L18.600276,95.8695134 L18.600276,89.4778302 Z M27.060252,78.8256589 L27.060252,72.4339756 L31.29024,72.4339756 L31.29024,85.2173421 L18.5983874,85.2173421 L18.5998628,72.4339756 L22.8298508,72.4339756 L22.8298508,78.8256589 L27.060252,78.8256589 Z" id="Shape"></path>
                    <path d="M16.05,179.963636 L58.85,179.963636 L58.85,165.709091 L16.05,165.709091 L16.05,179.963636 Z M20.2252369,169.781558 L54.6747631,169.781558 L54.6747631,175.891169 L20.2267282,175.891169 L20.2252369,169.781558 Z" id="Shape"></path>
                    <polygon id="Path" points="16.05 155.018182 58.85 155.018182 58.85 158.581818 16.05 158.581818"></polygon>
                </g>
            </g>
        </g>
    </g>
</svg>