<?xml version="1.0" encoding="UTF-8"?>
<svg width="135px" height="128px" viewBox="0 0 135 128" version="1.1" xmlns="http://www.w3.org/2000/svg" xmlns:xlink="http://www.w3.org/1999/xlink">
    <title>Group 9</title>
    <g id="Exploration-July-2023" stroke="none" stroke-width="1" fill="none" fill-rule="evenodd">
        <g id="section-1.landing-page-copy" transform="translate(-130.000000, -168.000000)">
            <g id="noun-videos-3024942" transform="translate(130.000000, 168.000000)">
                <rect id="Rectangle" fill="#FFFFFF" x="21" y="14" width="93" height="9" rx="2"></rect>
                <rect id="Rectangle" fill="#FFFFFF" x="43" y="3" width="51" height="9" rx="2"></rect>
                <rect id="Rectangle" fill="#FFFFFF" x="4" y="23" width="127" height="100" rx="7"></rect>
                <path d="M125.297919,128 L9.70208063,128 C4.3451929,128 0,123.619887 0,118.219948 L0,29.7800523 C0,24.3801134 4.3451929,20 9.70208063,20 L125.297919,20 C130.654807,20 135,24.3801134 135,29.7800523 L135,118.219948 C135,123.619887 130.654807,128 125.297919,128 Z M9.70208063,25.014753 C7.09827049,25.014753 4.97537931,27.1546744 4.97537931,29.7794409 L4.97537931,118.219336 C4.97537931,120.844072 7.09824016,122.984024 9.70208063,122.984024 L125.297919,122.984024 C127.90173,122.984024 130.024621,120.844103 130.024621,118.219336 L130.024621,29.7794409 C130.024621,27.154705 127.90176,25.014753 125.297919,25.014753 L9.70208063,25.014753 Z" id="Shape" fill="#0A404D" fill-rule="nonzero"></path>
                <path d="M20.8352367,24 L15.8823529,24 C15.8823529,16.2873171 21.545293,10 28.4958137,10 L106.520489,10 C113.471009,10 119.117647,16.268936 119.117647,23.9632379 L114.164763,23.9632379 C114.164763,19.2844286 110.730712,15.4828961 106.52079,15.4828961 L28.4961156,15.4828961 C24.2695904,15.4828961 20.8355386,19.3028097 20.8355386,23.9996658 L20.8352367,24 Z" id="Path" fill="#0A404D" fill-rule="nonzero"></path>
                <path d="M44.683309,10 L39.7058824,10 C39.7058824,4.4863145 43.2564629,0 47.6201303,0 L89.3818503,0 C93.7288312,0 97.2794118,4.4863145 97.2794118,9.97891589 L92.3019851,9.97891589 C92.3019851,7.945373 90.9912466,6.28919727 89.3818503,6.28919727 L47.6201303,6.28919727 C45.9941386,6.28919727 44.6834,7.945373 44.6834,9.999885 L44.683309,10 Z" id="Path" fill="#0A404D" fill-rule="nonzero"></path>
                <path d="M51.7192905,101.999414 C51.0487592,101.999414 50.378228,101.83332 49.756771,101.484523 C48.4484247,100.75372 47.6470588,99.3585073 47.6470588,97.84691 L47.6470588,50.1451878 C47.6470588,48.633712 48.4484247,47.2551426 49.756771,46.5242791 C51.0487592,45.7934763 52.6351329,45.8266725 53.8944349,46.6239376 L91.3953783,70.4751024 C92.589248,71.2391317 93.3088235,72.5512784 93.3088235,73.9963921 C93.3088235,75.4414147 92.589248,76.7535614 91.3953783,77.5009774 L53.8944349,101.368847 C53.2402617,101.784088 52.471612,102 51.7193204,102 L51.7192905,101.999414 Z M52.5533724,51.6553577 L52.5533724,96.3351001 L87.6649016,73.9788282 L52.5533724,51.6553577 Z" id="Shape" fill="#0A404D" fill-rule="nonzero"></path>
            </g>
        </g>
    </g>
</svg>