<?xml version="1.0" encoding="UTF-8"?>
<svg width="135px" height="140px" viewBox="0 0 135 140" version="1.1" xmlns="http://www.w3.org/2000/svg" xmlns:xlink="http://www.w3.org/1999/xlink">
    <title>Group 9</title>
    <g id="Exploration-July-2023" stroke="none" stroke-width="1" fill="none" fill-rule="evenodd">
        <g id="Artboard-Copy-11" transform="translate(-1274.000000, -3730.000000)" fill="#0A404D" fill-rule="nonzero">
            <g id="noun-videos-3024942" transform="translate(1274.000000, 3730.000000)">
                <path d="M125.297919,140 L9.70208063,140 C4.3451929,140 0,135.619887 0,130.219948 L0,41.7800523 C0,36.3801134 4.3451929,32 9.70208063,32 L125.297919,32 C130.654807,32 135,36.3801134 135,41.7800523 L135,130.219948 C135,135.619887 130.654807,140 125.297919,140 Z M9.70208063,37.014753 C7.09827049,37.014753 4.97537931,39.1546744 4.97537931,41.7794409 L4.97537931,130.219336 C4.97537931,132.844072 7.09824016,134.984024 9.70208063,134.984024 L125.297919,134.984024 C127.90173,134.984024 130.024621,132.844103 130.024621,130.219336 L130.024621,41.7794409 C130.024621,39.154705 127.90176,37.014753 125.297919,37.014753 L9.70208063,37.014753 Z" id="Shape"></path>
                <path d="M20.8352367,26 L15.8823529,26 C15.8823529,18.2873171 21.545293,12 28.4958137,12 L106.520489,12 C113.471009,12 119.117647,18.268936 119.117647,25.9632379 L114.164763,25.9632379 C114.164763,21.2844286 110.730712,17.4828961 106.52079,17.4828961 L28.4961156,17.4828961 C24.2695904,17.4828961 20.8355386,21.3028097 20.8355386,25.9996658 L20.8352367,26 Z" id="Path"></path>
                <path d="M44.683309,10 L39.7058824,10 C39.7058824,4.4863145 43.2564629,0 47.6201303,0 L89.3818503,0 C93.7288312,0 97.2794118,4.4863145 97.2794118,9.97891589 L92.3019851,9.97891589 C92.3019851,7.945373 90.9912466,6.28919727 89.3818503,6.28919727 L47.6201303,6.28919727 C45.9941386,6.28919727 44.6834,7.945373 44.6834,9.999885 L44.683309,10 Z" id="Path"></path>
                <path d="M51.7192905,113.999414 C51.0487592,113.999414 50.378228,113.83332 49.756771,113.484523 C48.4484247,112.75372 47.6470588,111.358507 47.6470588,109.84691 L47.6470588,62.1451878 C47.6470588,60.633712 48.4484247,59.2551426 49.756771,58.5242791 C51.0487592,57.7934763 52.6351329,57.8266725 53.8944349,58.6239376 L91.3953783,82.4751024 C92.589248,83.2391317 93.3088235,84.5512784 93.3088235,85.9963921 C93.3088235,87.4414147 92.589248,88.7535614 91.3953783,89.5009774 L53.8944349,113.368847 C53.2402617,113.784088 52.471612,114 51.7193204,114 L51.7192905,113.999414 Z M52.5533724,63.6553577 L52.5533724,108.3351 L87.6649016,85.9788282 L52.5533724,63.6553577 Z" id="Shape"></path>
            </g>
        </g>
    </g>
</svg>