<?xml version="1.0" encoding="UTF-8"?>
<svg width="253px" height="27px" viewBox="0 0 253 27" version="1.1" xmlns="http://www.w3.org/2000/svg" xmlns:xlink="http://www.w3.org/1999/xlink">
    <title>CLASSER</title>
    <g id="landing-page" stroke="none" stroke-width="1" fill="none" fill-rule="evenodd">
        <g id="Artboard-Copy" transform="translate(-45.000000, -23.000000)" fill="#FFFFFF" fill-rule="nonzero">
            <path d="M57.3,49.595 C58.8166667,49.595 60.205,49.35 61.465,48.86 C62.725,48.37 63.8216667,47.6758333 64.755,46.7775 C65.6883333,45.8791667 66.4291667,44.8116667 66.9775,43.575 C67.5258333,42.3383333 67.8466667,40.9733333 67.94,39.48 L67.94,39.48 L63.67,39.48 C63.5766667,40.39 63.3783333,41.2416667 63.075,42.035 C62.7716667,42.8283333 62.3516667,43.5225 61.815,44.1175 C61.2783333,44.7125 60.6366667,45.1791667 59.89,45.5175 C59.1433333,45.8558333 58.28,46.025 57.3,46.025 C55.97,46.025 54.8208333,45.7566667 53.8525,45.22 C52.8841667,44.6833333 52.0966667,43.9658333 51.49,43.0675 C50.8833333,42.1691667 50.4341667,41.1483333 50.1425,40.005 C49.8508333,38.8616667 49.705,37.695 49.705,36.505 C49.705,35.315 49.8508333,34.1483333 50.1425,33.005 C50.4341667,31.8616667 50.8833333,30.8408333 51.49,29.9425 C52.0966667,29.0441667 52.8841667,28.3266667 53.8525,27.79 C54.8208333,27.2533333 55.97,26.985 57.3,26.985 C58.21,26.985 59.0091667,27.1075 59.6975,27.3525 C60.3858333,27.5975 60.9866667,27.9416667 61.5,28.385 C62.0133333,28.8283333 62.4333333,29.3533333 62.76,29.96 C63.0866667,30.5666667 63.3433333,31.2316667 63.53,31.955 L63.53,31.955 L67.905,31.955 C67.765,30.6016667 67.4033333,29.4 66.82,28.35 C66.2366667,27.3 65.4725,26.4075 64.5275,25.6725 C63.5825,24.9375 62.4916667,24.3775 61.255,23.9925 C60.0183333,23.6075 58.7,23.415 57.3,23.415 C55.4333333,23.415 53.7591667,23.765 52.2775,24.465 C50.7958333,25.165 49.5416667,26.11 48.515,27.3 C47.4883333,28.49 46.7008333,29.8783333 46.1525,31.465 C45.6041667,33.0516667 45.33,34.7316667 45.33,36.505 C45.33,38.3016667 45.6041667,39.9933333 46.1525,41.58 C46.7008333,43.1666667 47.4883333,44.555 48.515,45.745 C49.5416667,46.935 50.7958333,47.8741667 52.2775,48.5625 C53.7591667,49.2508333 55.4333333,49.595 57.3,49.595 Z M104.565556,49 L104.565556,45.22 L91.8605556,45.22 L91.8605556,24.01 L87.4855556,24.01 L87.4855556,49 L104.565556,49 Z M124.741111,49 L127.086111,42.385 L137.061111,42.385 L139.406111,49 L144.096111,49 L134.471111,24.01 L129.816111,24.01 L120.226111,49 L124.741111,49 Z M135.906111,39.06 L128.276111,39.06 L132.056111,28.315 L132.161111,28.315 L135.906111,39.06 Z M170.956667,49.595 C172.193333,49.595 173.406667,49.4491667 174.596667,49.1575 C175.786667,48.8658333 176.848333,48.405 177.781667,47.775 C178.715,47.145 179.4675,46.3341667 180.039167,45.3425 C180.610833,44.3508333 180.896667,43.155 180.896667,41.755 C180.896667,41.1016667 180.7975,40.4483333 180.599167,39.795 C180.400833,39.1416667 180.0975,38.5291667 179.689167,37.9575 C179.280833,37.3858333 178.773333,36.8783333 178.166667,36.435 C177.56,35.9916667 176.848333,35.6416667 176.031667,35.385 C175.705,35.2916667 175.1625,35.1458333 174.404167,34.9475 C173.645833,34.7491667 172.87,34.545 172.076667,34.335 C171.283333,34.125 170.565833,33.9325 169.924167,33.7575 C169.2825,33.5825 168.915,33.4833333 168.821667,33.46 C167.935,33.2033333 167.2175,32.8241667 166.669167,32.3225 C166.120833,31.8208333 165.846667,31.1266667 165.846667,30.24 C165.846667,29.61 165.9925,29.085 166.284167,28.665 C166.575833,28.245 166.943333,27.9125 167.386667,27.6675 C167.83,27.4225 168.32,27.2475 168.856667,27.1425 C169.393333,27.0375 169.918333,26.985 170.431667,26.985 C171.948333,26.985 173.196667,27.3175 174.176667,27.9825 C175.156667,28.6475 175.705,29.785 175.821667,31.395 L175.821667,31.395 L180.196667,31.395 C180.196667,30.0883333 179.94,28.9391667 179.426667,27.9475 C178.913333,26.9558333 178.219167,26.1216667 177.344167,25.445 C176.469167,24.7683333 175.454167,24.2608333 174.299167,23.9225 C173.144167,23.5841667 171.913333,23.415 170.606667,23.415 C169.486667,23.415 168.378333,23.5608333 167.281667,23.8525 C166.185,24.1441667 165.205,24.5933333 164.341667,25.2 C163.478333,25.8066667 162.784167,26.5708333 162.259167,27.4925 C161.734167,28.4141667 161.471667,29.505 161.471667,30.765 C161.471667,31.4183333 161.559167,32.06 161.734167,32.69 C161.909167,33.32 162.206667,33.915 162.626667,34.475 C163.046667,35.035 163.6125,35.5425 164.324167,35.9975 C165.035833,36.4525 165.928333,36.82 167.001667,37.1 C168.728333,37.5666667 170.180833,37.9458333 171.359167,38.2375 C172.5375,38.5291667 173.57,38.8383333 174.456667,39.165 C174.97,39.3516667 175.4425,39.6725 175.874167,40.1275 C176.305833,40.5825 176.521667,41.2883333 176.521667,42.245 C176.521667,42.7116667 176.428333,43.1725 176.241667,43.6275 C176.055,44.0825 175.751667,44.485 175.331667,44.835 C174.911667,45.185 174.363333,45.4708333 173.686667,45.6925 C173.01,45.9141667 172.193333,46.025 171.236667,46.025 C170.35,46.025 169.5275,45.9258333 168.769167,45.7275 C168.010833,45.5291667 167.34,45.2141667 166.756667,44.7825 C166.173333,44.3508333 165.718333,43.7966667 165.391667,43.12 C165.065,42.4433333 164.901667,41.6266667 164.901667,40.67 L164.901667,40.67 L160.526667,40.67 C160.55,42.21 160.841667,43.5458333 161.401667,44.6775 C161.961667,45.8091667 162.708333,46.7366667 163.641667,47.46 C164.575,48.1833333 165.671667,48.72 166.931667,49.07 C168.191667,49.42 169.533333,49.595 170.956667,49.595 Z M209.192222,49.595 C210.428889,49.595 211.642222,49.4491667 212.832222,49.1575 C214.022222,48.8658333 215.083889,48.405 216.017222,47.775 C216.950556,47.145 217.703056,46.3341667 218.274722,45.3425 C218.846389,44.3508333 219.132222,43.155 219.132222,41.755 C219.132222,41.1016667 219.033056,40.4483333 218.834722,39.795 C218.636389,39.1416667 218.333056,38.5291667 217.924722,37.9575 C217.516389,37.3858333 217.008889,36.8783333 216.402222,36.435 C215.795556,35.9916667 215.083889,35.6416667 214.267222,35.385 C213.940556,35.2916667 213.398056,35.1458333 212.639722,34.9475 C211.881389,34.7491667 211.105556,34.545 210.312222,34.335 C209.518889,34.125 208.801389,33.9325 208.159722,33.7575 C207.518056,33.5825 207.150556,33.4833333 207.057222,33.46 C206.170556,33.2033333 205.453056,32.8241667 204.904722,32.3225 C204.356389,31.8208333 204.082222,31.1266667 204.082222,30.24 C204.082222,29.61 204.228056,29.085 204.519722,28.665 C204.811389,28.245 205.178889,27.9125 205.622222,27.6675 C206.065556,27.4225 206.555556,27.2475 207.092222,27.1425 C207.628889,27.0375 208.153889,26.985 208.667222,26.985 C210.183889,26.985 211.432222,27.3175 212.412222,27.9825 C213.392222,28.6475 213.940556,29.785 214.057222,31.395 L214.057222,31.395 L218.432222,31.395 C218.432222,30.0883333 218.175556,28.9391667 217.662222,27.9475 C217.148889,26.9558333 216.454722,26.1216667 215.579722,25.445 C214.704722,24.7683333 213.689722,24.2608333 212.534722,23.9225 C211.379722,23.5841667 210.148889,23.415 208.842222,23.415 C207.722222,23.415 206.613889,23.5608333 205.517222,23.8525 C204.420556,24.1441667 203.440556,24.5933333 202.577222,25.2 C201.713889,25.8066667 201.019722,26.5708333 200.494722,27.4925 C199.969722,28.4141667 199.707222,29.505 199.707222,30.765 C199.707222,31.4183333 199.794722,32.06 199.969722,32.69 C200.144722,33.32 200.442222,33.915 200.862222,34.475 C201.282222,35.035 201.848056,35.5425 202.559722,35.9975 C203.271389,36.4525 204.163889,36.82 205.237222,37.1 C206.963889,37.5666667 208.416389,37.9458333 209.594722,38.2375 C210.773056,38.5291667 211.805556,38.8383333 212.692222,39.165 C213.205556,39.3516667 213.678056,39.6725 214.109722,40.1275 C214.541389,40.5825 214.757222,41.2883333 214.757222,42.245 C214.757222,42.7116667 214.663889,43.1725 214.477222,43.6275 C214.290556,44.0825 213.987222,44.485 213.567222,44.835 C213.147222,45.185 212.598889,45.4708333 211.922222,45.6925 C211.245556,45.9141667 210.428889,46.025 209.472222,46.025 C208.585556,46.025 207.763056,45.9258333 207.004722,45.7275 C206.246389,45.5291667 205.575556,45.2141667 204.992222,44.7825 C204.408889,44.3508333 203.953889,43.7966667 203.627222,43.12 C203.300556,42.4433333 203.137222,41.6266667 203.137222,40.67 L203.137222,40.67 L198.762222,40.67 C198.785556,42.21 199.077222,43.5458333 199.637222,44.6775 C200.197222,45.8091667 200.943889,46.7366667 201.877222,47.46 C202.810556,48.1833333 203.907222,48.72 205.167222,49.07 C206.427222,49.42 207.768889,49.595 209.192222,49.595 Z M256.737778,49 L256.737778,45.22 L242.877778,45.22 L242.877778,37.905 L255.477778,37.905 L255.477778,34.335 L242.877778,34.335 L242.877778,27.79 L256.492778,27.79 L256.492778,24.01 L238.502778,24.01 L238.502778,49 L256.737778,49 Z M280.483333,49 L280.483333,38.71 L286.923333,38.71 C287.926667,38.71 288.749167,38.8383333 289.390833,39.095 C290.0325,39.3516667 290.54,39.7541667 290.913333,40.3025 C291.286667,40.8508333 291.543333,41.5391667 291.683333,42.3675 C291.823333,43.1958333 291.893333,44.1816667 291.893333,45.325 C291.893333,45.9316667 291.9225,46.5616667 291.980833,47.215 C292.039167,47.8683333 292.231667,48.4633333 292.558333,49 L292.558333,49 L297.248333,49 C296.781667,48.4866667 296.4375,47.6291667 296.215833,46.4275 C295.994167,45.2258333 295.883333,43.89 295.883333,42.42 C295.883333,41.44 295.760833,40.6233333 295.515833,39.97 C295.270833,39.3166667 294.961667,38.7858333 294.588333,38.3775 C294.215,37.9691667 293.8125,37.6716667 293.380833,37.485 C292.949167,37.2983333 292.546667,37.1816667 292.173333,37.135 L292.173333,37.135 L292.173333,37.065 C292.383333,36.995 292.715833,36.855 293.170833,36.645 C293.625833,36.435 294.086667,36.0908333 294.553333,35.6125 C295.02,35.1341667 295.428333,34.5041667 295.778333,33.7225 C296.128333,32.9408333 296.303333,31.955 296.303333,30.765 C296.303333,28.6416667 295.615,26.985 294.238333,25.795 C292.861667,24.605 290.796667,24.01 288.043333,24.01 L288.043333,24.01 L276.108333,24.01 L276.108333,49 L280.483333,49 Z M287.658333,35.385 L280.483333,35.385 L280.483333,27.58 L287.588333,27.58 C288.148333,27.58 288.690833,27.6266667 289.215833,27.72 C289.740833,27.8133333 290.2075,28 290.615833,28.28 C291.024167,28.56 291.345,28.9508333 291.578333,29.4525 C291.811667,29.9541667 291.928333,30.6016667 291.928333,31.395 C291.928333,32.725 291.566667,33.7225 290.843333,34.3875 C290.12,35.0525 289.058333,35.385 287.658333,35.385 L287.658333,35.385 Z" id="CLASSER"></path>
        </g>
    </g>
</svg>