<?xml version="1.0" encoding="UTF-8"?>
<svg width="78px" height="78px" viewBox="0 0 78 78" version="1.1" xmlns="http://www.w3.org/2000/svg" xmlns:xlink="http://www.w3.org/1999/xlink">
    <title>Group 10</title>
    <g id="Exploration-July-2023" stroke="none" stroke-width="1" fill="none" fill-rule="evenodd">
        <g id="Artboard-Copy-11" transform="translate(-896.000000, -3285.000000)">
            <g id="Group-10" transform="translate(896.830766, 3285.760318)">
                <circle id="Oval-Copy-10" fill="#0A404D" cx="38.6692343" cy="38.7396823" r="38.5"></circle>
                <g id="noun-karting-4058545-(1)" transform="translate(15.169234, 20.239682)" fill="#FFFFFF" fill-rule="nonzero">
                    <g id="Group" transform="translate(-0.371615, -0.061655)">
                        <path d="M11.602131,12.2872903 L12.9449703,18.8637735 C13.1598245,19.6593159 13.8581009,20.2427136 14.7175181,20.2427136 L28.7904733,20.2427136 C29.4350361,20.2427136 30.0258854,19.7653882 30.1870261,19.1289543 L30.1870261,19.022882 L27.1253526,15.6816042 C26.7493576,15.257315 26.1585084,14.9921342 25.5676591,14.9921342 C24.9230963,14.9921342 24.3859606,15.257315 23.956252,15.6816042 L21.0020057,18.7577012 C20.840865,18.9168097 20.5185836,18.8637735 20.46487,18.5985928 L19.336885,13.9314111 C20.0351614,14.0905196 20.7334378,14.249628 21.2705735,14.3557003 C21.592855,14.4617727 21.9688499,14.4617727 22.3448449,14.3557003 L26.9104983,13.1358688 C27.9310562,12.870688 28.575619,11.8099649 28.2533376,10.7492418 C27.9847697,9.74155484 26.9104983,9.10512098 25.8362269,9.42333791 L21.8077092,10.5370972 C21.0020057,10.3249525 17.2420558,9.84762715 14.3415231,9.42333791 C12.6764024,9.21119329 11.2798496,10.6962056 11.602131,12.2872903 Z" id="Path"></path>
                        <path d="M48.5033533,21.1443282 L36.5789409,11.9690734 C36.0955187,11.5978203 35.3972423,11.7038926 35.0212473,12.181218 L34.5378252,12.8176518 C34.4303981,12.9767603 34.3229709,13.1889049 34.2155438,13.3480134 L32.067001,11.8099649 L32.9801317,10.3249525 C33.3024131,9.84762715 33.1412724,9.21119329 32.6578503,8.94601251 C32.1744282,8.62779558 31.5298653,8.78690405 31.2612975,9.26422945 L28.3607647,13.8783749 C28.0384833,14.3557003 28.199624,14.9921342 28.6830461,15.257315 C28.8441868,15.3633873 29.0590411,15.4164234 29.2201818,15.4164234 C29.5424632,15.4164234 29.9184582,15.257315 30.0795989,14.939098 L30.9390161,13.560158 L33.194986,15.1512427 C32.5504231,16.4241104 32.067001,17.7500143 31.7447196,19.1289543 L31.691006,19.3941351 C31.3687246,20.720039 30.1870261,21.7277259 28.7904733,21.7277259 L14.7175181,21.7277259 C13.106111,21.7277259 11.7095582,20.6139666 11.3872767,19.0759181 L10.1518646,13.0828326 C10.0981511,12.7115795 9.77586966,12.3933626 9.39987467,12.2872903 L7.46618617,11.8099649 C6.92905047,11.7038926 6.39191477,11.9690734 6.23077407,12.4994349 L4.24337199,19.1819905 C4.18965842,19.4471712 3.97480415,19.6062797 3.7062363,19.712352 L1.98740207,20.2427136 C0.805703543,20.6139666 0,21.7277259 0,22.9475575 L0,26.4479437 C0,27.1904499 0.644562834,27.8268838 1.39655281,27.8268838 L3.54509559,27.8268838 C3.54509559,27.7208114 3.54509559,27.6147391 3.54509559,27.5086668 C3.54509559,24.485606 6.01591979,22.0459428 9.02387968,22.0459428 C12.0318396,22.0459428 14.5026638,24.485606 14.5026638,27.4556307 C14.5026638,27.561703 14.5026638,27.6677753 14.5026638,27.7738476 L36.686368,27.7738476 C36.686368,27.6677753 36.686368,27.561703 36.686368,27.4556307 C36.686368,24.485606 39.1571922,22.0459428 42.1651521,22.0459428 C45.1193984,22.0459428 47.5902226,24.485606 47.5902226,27.4556307 C47.5902226,27.561703 47.5902226,27.6677753 47.5902226,27.7738476 L49.7387654,27.7738476 C50.4907554,27.7738476 51.1353182,27.1904499 51.1353182,26.3949076 C51.0816046,24.3795337 50.1147604,22.4171959 48.5033533,21.1443282 Z" id="Path"></path>
                        <path d="M42.1114385,23.5839913 C39.9628957,23.5839913 38.1903479,25.3341845 38.1903479,27.4556307 C38.1903479,29.5770769 39.9628957,31.32727 42.1114385,31.32727 C44.2599813,31.32727 46.0325291,29.5770769 46.0325291,27.4556307 C46.0325291,25.3341845 44.2599813,23.5839913 42.1114385,23.5839913 Z M42.1114385,28.8345707 C41.3594485,28.8345707 40.7148857,28.1981368 40.7148857,27.4556307 C40.7148857,26.7131245 41.3594485,26.0766906 42.1114385,26.0766906 C42.8634285,26.0766906 43.5079913,26.7131245 43.5079913,27.4556307 C43.5079913,28.1981368 42.8634285,28.8345707 42.1114385,28.8345707 Z" id="Shape"></path>
                        <path d="M9.02387968,23.5839913 C6.8753369,23.5839913 5.10278911,25.3341845 5.10278911,27.4556307 C5.10278911,29.5770769 6.8753369,31.32727 9.02387968,31.32727 C11.1724225,31.32727 12.9449703,29.5770769 12.9449703,27.4556307 C12.9449703,25.3341845 11.1724225,23.5839913 9.02387968,23.5839913 Z M9.02387968,28.8345707 C8.27188971,28.8345707 7.62732687,28.1981368 7.62732687,27.4556307 C7.62732687,26.7131245 8.27188971,26.0766906 9.02387968,26.0766906 C9.77586966,26.0766906 10.4204325,26.7131245 10.4204325,27.4556307 C10.4204325,28.1981368 9.77586966,28.8345707 9.02387968,28.8345707 Z" id="Shape"></path>
                        <path d="M16.2752116,3.32418007 L16.2752116,3.32418007 C16.1140709,3.32418007 16.0066437,3.32418007 15.9529302,3.32418007 C15.9529302,3.37721622 15.9529302,3.53632469 16.1140709,3.74846931 C16.4363523,4.38490317 17.349483,5.1804455 18.4774679,5.33955396 C19.4443122,5.49866243 20.3574429,5.55169858 21.0557193,5.60473474 C20.8945785,4.96830088 20.5185836,4.11972239 19.9277343,3.00596314 C19.2831715,3.21810776 18.0477594,3.53632469 16.2752116,3.32418007 Z" id="Path"></path>
                        <path d="M12.5689753,7.93832557 L19.9814479,8.89297636 C20.4111564,8.94601251 20.840865,8.68083174 20.9482921,8.2565425 C21.1094328,7.72618095 21.21686,7.24885555 21.2705735,6.77153015 C20.6797243,6.77153015 19.7665936,6.718494 18.3163272,6.50634938 C16.2752116,6.18813245 14.6100909,4.38490317 14.7712316,3.11203545 C14.8249452,2.52863774 15.3083673,1.94524003 16.4363523,2.1043485 C17.8329051,2.26345696 18.8534629,2.05131234 19.336885,1.89220388 C17.0272015,-1.28996543 12.1929803,-0.0701338628 10.9038546,2.68774621 C9.99072393,4.65008395 11.3335632,6.77153015 11.9244124,7.56707248 C12.0855531,7.7792171 12.3004074,7.93832557 12.5689753,7.93832557 Z" id="Path"></path>
                    </g>
                </g>
            </g>
        </g>
    </g>
</svg>