<?xml version="1.0" encoding="UTF-8"?>
<svg width="78px" height="78px" viewBox="0 0 78 78" version="1.1" xmlns="http://www.w3.org/2000/svg" xmlns:xlink="http://www.w3.org/1999/xlink">
    <title>Group 9</title>
    <g id="Exploration-July-2023" stroke="none" stroke-width="1" fill="none" fill-rule="evenodd">
        <g id="Artboard-Copy-11" transform="translate(-575.000000, -3290.000000)">
            <g id="Group-9" transform="translate(575.860600, 3290.436592)">
                <circle id="Oval-Copy-7" fill="#0A404D" cx="38.6394001" cy="38.063408" r="38.5"></circle>
                <g id="noun-kayaking-1415570" transform="translate(15.139400, 14.563408)" fill="#FFFFFF" fill-rule="nonzero">
                    <g id="Group" transform="translate(-0.159955, 0.020672)">
                        <path d="M23.573053,0 C22.7311462,0 22.1539664,0.32736653 21.5922656,0.720287037 C21.0305648,1.11320754 20.4943648,1.62084489 19.938881,2.24271191 C18.8279135,3.48645118 17.6659266,5.19436437 16.5830015,7.28472117 C14.5976047,11.1171139 12.8771602,16.2581378 12.6050565,22.001495 L11.0007823,22.001495 L7.7267535,19.6605621 C7.45758537,19.4746555 7.13711667,19.3773702 6.81002543,19.3822694 L1.5715793,19.3822694 C1.5170492,19.3794257 1.46240796,19.3794257 1.40787786,19.3822694 C0.604468275,19.4664772 -0.00427474198,20.1460049 2.26110648e-05,20.9538047 L2.26110648e-05,26.1922559 C2.26110648e-05,27.060155 0.703681075,27.7637045 1.5715793,27.7637912 L6.81002543,27.7637912 C7.13890451,27.763903 7.45953308,27.6608437 7.7267535,27.4691284 L10.9844122,25.1445657 L12.6050565,25.1445657 C12.8746882,30.8921995 14.5957309,36.008973 16.5830015,39.8449693 C17.6659261,41.9353208 18.827914,43.6432131 19.938881,44.8869785 C20.4943648,45.5088351 21.0305648,46.0164672 21.5922656,46.4094034 C22.1539664,46.8022873 22.7311446,47.1460606 23.573053,47.1460606 C24.4149253,47.1460606 24.9921062,46.8022873 25.5538405,46.4094034 C26.1155748,46.0164672 26.6517282,45.5088351 27.207225,44.8869785 C28.3182188,43.6432131 29.4801999,41.9353208 30.5631046,39.8449693 C32.5503385,36.008973 34.2714127,30.8921995 34.5410496,25.1445657 L36.1616939,25.1445657 L39.4193526,27.4691284 C39.686573,27.6608437 40.0072016,27.763903 40.3360806,27.7637912 L45.5745268,27.7637912 C46.442425,27.7637045 47.1460606,27.060155 47.1460606,26.1922559 L47.1460606,20.9538047 C47.1460606,20.0859057 46.442425,19.3823561 45.5745268,19.3822694 L40.3360806,19.3822694 C40.2815505,19.3794257 40.2269093,19.3794257 40.1723792,19.3822694 C39.9015116,19.408282 39.6420381,19.5041745 39.4193526,19.6605621 L36.1453237,22.001495 L34.5410496,22.001495 C34.2689459,16.2581378 32.5485013,11.1171139 30.5631046,7.28472117 C29.4801795,5.19436437 28.3181926,3.48645118 27.207225,2.24271191 C26.6517413,1.62084489 26.1155412,1.11320754 25.5538405,0.720287037 C24.9921397,0.32736653 24.4149599,0 23.573053,0 Z M23.573053,3.20855135 C23.6226166,3.23295677 23.684063,3.25846069 23.7531246,3.30677231 C24.0293709,3.50001353 24.4272917,3.84662613 24.8662944,4.33809238 C25.7442994,5.32102488 26.800467,6.83416722 27.7801801,8.72529524 C29.5587258,12.1584043 31.1092152,16.8512981 31.3816118,22.001495 L29.3353438,22.001495 L29.3353438,18.3345791 C29.3353438,15.1694493 26.7381782,12.5722828 23.573053,12.5722828 C20.4079278,12.5722828 17.8107623,15.1694493 17.8107623,18.3345791 L17.8107623,22.001495 L15.7644943,22.001495 C16.0368909,16.8512981 17.5873808,12.1584043 19.365926,8.72529524 C20.345639,6.83416722 21.4018067,5.32102488 22.2798116,4.33809238 C22.7188139,3.84662613 23.1167351,3.50001353 23.3929815,3.30677231 C23.462043,3.25846226 23.5234895,3.23295677 23.573053,3.20855135 Z M23.573053,15.7153535 C25.0512849,15.7153535 26.1922761,16.8563458 26.1922761,18.3345791 L26.1922761,22.001495 L20.95383,22.001495 L20.95383,18.3345791 C20.95383,16.8563458 22.0948212,15.7153535 23.573053,15.7153535 Z M3.14311314,22.5253401 L6.30255096,22.5253401 L7.75949379,23.5730303 L6.28618082,24.6207205 L3.14311314,24.6207205 L3.14311314,22.5253401 Z M40.8435551,22.5253401 L44.0029929,22.5253401 L44.0029929,24.6207205 L40.8599253,24.6207205 L39.3866123,23.5730303 L40.8435551,22.5253401 Z M15.7644943,25.1445657 L17.8107623,25.1445657 L17.8107623,28.8114815 C17.8107623,31.9766061 20.4079278,34.5737778 23.573053,34.5737778 C26.7381782,34.5737778 29.3353438,31.9766061 29.3353438,28.8114815 L29.3353438,25.1445657 L31.3816118,25.1445657 C31.111638,30.2987249 29.5605634,34.9676585 27.7801801,38.4043952 C26.8004885,40.2955285 25.7443046,41.8086551 24.8662944,42.7915981 C24.4272896,43.2830696 24.029383,43.6460418 23.7531246,43.8392883 C23.6840599,43.8875999 23.6226082,43.929474 23.573053,43.9538794 C23.523489,43.929484 23.462043,43.8875475 23.3929815,43.8392883 C23.1167351,43.6460418 22.7188144,43.2830696 22.2798116,42.7915981 C21.4018062,41.8086551 20.3456396,40.2955285 19.365926,38.4043952 C17.5855034,34.9676585 16.0344618,30.2987249 15.7644943,25.1445657 Z M20.95383,25.1445657 L26.1922761,25.1445657 L26.1922761,28.8114815 C26.1922761,30.28972 25.0512849,31.4307071 23.573053,31.4307071 C22.0948212,31.4307071 20.95383,30.28972 20.95383,28.8114815 L20.95383,25.1445657 Z" id="Shape"></path>
                    </g>
                </g>
            </g>
        </g>
    </g>
</svg>