<?xml version="1.0" encoding="UTF-8"?>
<svg width="78px" height="78px" viewBox="0 0 78 78" version="1.1" xmlns="http://www.w3.org/2000/svg" xmlns:xlink="http://www.w3.org/1999/xlink">
    <title>Group 12</title>
    <g id="Exploration-July-2023" stroke="none" stroke-width="1" fill="none" fill-rule="evenodd">
        <g id="Artboard-Copy-11" transform="translate(-789.000000, -3288.000000)">
            <g id="Group-12" transform="translate(789.840710, 3288.593690)">
                <circle id="Oval-Copy-11" fill="#0A404D" cx="38.6592896" cy="38.9063105" r="38.5"></circle>
                <g id="noun-motorcycle-1279706" transform="translate(14.159290, 15.406310)" fill="#FFFFFF" fill-rule="nonzero">
                    <path d="M15.239252,33.7045336 C15.239252,37.9906531 11.8332419,41.4653938 7.63140719,41.4653938 C3.42957252,41.4653938 0.0240572792,37.9906531 0.0240572792,33.7045336 C0.0240572792,29.4184142 3.43006743,25.9436735 7.63140719,25.9436735 C11.8327469,25.9436735 15.239252,29.4184142 15.239252,33.7045336 Z M7.63140719,29.1745462 C5.17909967,29.1745462 3.19052821,31.2027405 3.19052821,33.7045336 C3.19052821,36.2063268 5.17909967,38.235026 7.63140719,38.235026 C10.0842096,38.235026 12.0717912,36.2063268 12.0717912,33.7045336 C12.0717912,31.2027405 10.0842096,29.1745462 7.63140719,29.1745462 Z M41.4133661,25.9436735 C37.2120263,25.9436735 33.8060162,29.4184142 33.8060162,33.7045336 C33.8060162,37.9906531 37.2120263,41.4653938 41.4133661,41.4653938 C45.6142109,41.4653938 49.020716,37.9906531 49.020716,33.7045336 C49.020716,29.4184142 45.6142109,25.9436735 41.4133661,25.9436735 Z M45.8537501,33.7045336 C45.8537501,36.2063268 43.8656736,38.235026 41.4133661,38.235026 C38.9610586,38.235026 36.9724871,36.2063268 36.9724871,33.7045336 C36.9724871,31.2027405 38.9610586,29.1745462 41.4133661,29.1745462 C43.8656736,29.1745462 45.8537501,31.2027405 45.8537501,33.7045336 Z M41.4133661,24.1426854 C41.6885392,24.1426854 41.9597531,24.1573275 42.2284923,24.181058 L42.2512584,24.1426854 C42.2512584,24.1426854 43.3974833,22.3886532 43.3974833,21.0839845 C43.3974833,16.8549191 34.9740173,14.6050724 34.9740173,14.6050724 L33.7976026,16.5868157 C32.6211879,15.9965844 31.3804341,15.2988088 30.6311317,14.6737392 C29.2438828,13.5154923 25.6473301,9.09708832 25.290001,8.75779367 C24.0482574,7.57985556 22.106208,7.65104685 20.9515695,8.91734294 C20.8827762,8.99257345 19.2559882,10.7794243 17.6009899,12.8000451 C16.9590842,13.584664 16.4181413,14.2733513 15.961829,14.8857983 C16.2572937,15.2235783 18.5492485,17.7339548 21.4316378,17.8829011 C21.4390615,17.883406 21.4459904,17.8844158 21.4534141,17.8854256 C22.487788,16.5656098 23.8235656,14.986274 25.0796618,13.5892081 C26.194212,14.8100629 27.5898744,16.2717564 28.64355,17.1518019 C29.566073,17.9217786 30.9211523,18.6993288 32.1658654,19.3355063 L30.5633282,22.0347164 L30.5633282,21.8282112 C30.5633282,21.3924801 30.2173821,21.0390482 29.7902698,21.0390482 L24.4872476,21.0390482 C23.32766,20.5508072 22.1987572,20.022174 21.2831631,19.5460507 C18.2013227,19.3567122 15.814839,17.1427136 14.9893196,16.2712515 C13.9099083,17.9258178 13.6461182,18.8805889 13.6461182,19.7793158 C13.6461182,20.4654786 13.8129048,21.08146 14.1276713,21.6504854 L4.9064011,20.7300477 L3.87400686,24.943966 C5.02468596,24.4294701 6.29513468,24.1426854 7.63140719,24.1426854 C12.807731,24.1426854 17.0041216,28.4237558 17.0041216,33.7045336 C17.0041216,34.6012409 16.8803926,35.4681589 16.6542161,36.2916553 L32.3910521,36.2916553 C32.1648756,35.4681589 32.0411466,34.6012409 32.0411466,33.7045336 C32.0411466,28.4237558 36.2375372,24.1426854 41.4133661,24.1426854 Z M30.4579112,9.32076024 C31.3482646,8.31852828 31.4096341,7.22288931 31.4096341,7.22288931 L31.2715526,7.16735001 C31.2646238,6.73464836 31.1943458,6.1731965 31.1943458,6.1731965 C31.1943458,6.1731965 31.1799932,5.93841672 30.96421,5.93841672 C30.96421,5.93841672 30.96421,5.93841672 30.8726506,6.1731965 C30.7801013,6.40797628 30.4420739,6.53369706 30.4420739,6.53369706 C30.4420739,6.53369706 29.1686556,6.20500537 28.9236724,6.07978949 C28.6776992,5.9540687 28.6623568,5.641029 28.6623568,5.641029 C28.6623568,5.641029 28.7237264,4.92103768 28.7237264,4.48278209 C28.7237264,4.04452651 29.0924386,4.04452651 29.0924386,4.04452651 C29.0924386,4.04452651 30.5811452,4.02887452 30.7805962,3.99706565 C30.9310506,3.97434502 30.9414438,3.79813396 30.9374845,3.7138152 L31.1181288,3.71532991 C31.1181288,3.71532991 30.1659109,0.44255029 27.0815959,0.44255029 C23.9967861,0.44255029 22.875802,2.57223009 22.875802,4.13793351 C22.875802,5.70363694 23.3979381,6.8154328 23.3979381,6.8154328 L30.4579112,9.32076024 Z" id="Shape"></path>
                </g>
            </g>
        </g>
    </g>
</svg>