<?xml version="1.0" encoding="UTF-8"?>
<svg width="78px" height="77px" viewBox="0 0 78 77" version="1.1" xmlns="http://www.w3.org/2000/svg" xmlns:xlink="http://www.w3.org/1999/xlink">
    <title>Group 7</title>
    <g id="Exploration-July-2023" stroke="none" stroke-width="1" fill="none" fill-rule="evenodd">
        <g id="Artboard-Copy-11" transform="translate(-682.000000, -3288.000000)">
            <g id="Group-7" transform="translate(682.850655, 3288.169895)">
                <circle id="Oval-Copy-6" fill="#0A404D" cx="37.6493448" cy="38.3301054" r="38.5"></circle>
                <g id="noun-mountain-bicycle-derailleur-885175" transform="translate(8.149345, 19.830105)" fill="#FFFFFF" fill-rule="nonzero">
                    <path d="M26.1914523,17.730149 C23.716544,17.730149 21.7102344,19.6910873 21.7102344,22.1100272 C21.7102344,24.5289672 23.716544,26.4899055 26.1914523,26.4899055 C28.6663607,26.4899055 30.6726703,24.5289672 30.6726703,22.1100272 C30.6726703,19.6910873 28.6663607,17.730149 26.1914523,17.730149 Z M26.1914523,19.7030671 C27.5515371,19.7030671 28.6541036,20.7806999 28.6541036,22.1100272 C28.6541036,23.4393546 27.5515371,24.5169873 26.1914523,24.5169873 C24.8313676,24.5169873 23.728801,23.4393546 23.728801,22.1100272 C23.728801,20.7806999 24.8313676,19.7030671 26.1914523,19.7030671 Z" id="Oval" transform="translate(26.191452, 22.110027) rotate(-90.000000) translate(-26.191452, -22.110027) "></path>
                    <path d="M40.7619859,4.1970649 C41.2964536,4.06890511 41.8351157,4.39213101 41.9651214,4.91901014 C42.0892177,5.42194023 41.7961071,5.92863779 41.3043559,6.08512789 L41.232778,6.10506304 L22.8075676,10.5232363 C22.2730998,10.6513961 21.7344377,10.3281702 21.604432,9.80129104 C21.4803357,9.29836095 21.7734463,8.79166339 22.2651975,8.63517328 L22.3367754,8.61523814 L40.7619859,4.1970649 Z" id="Path"></path>
                    <path d="M40.7852486,5.46378279 C41.139984,5.05135025 41.7700395,4.99774013 42.1925169,5.34404125 C42.5938705,5.67302732 42.6634997,6.24458196 42.365318,6.65452431 L42.3151748,6.71785008 L30.1540346,20.8569812 C29.7992993,21.2694137 29.1692438,21.3230239 28.7467663,20.9767227 C28.3454128,20.6477367 28.2757836,20.076182 28.5739653,19.6662397 L28.6241085,19.6029139 L40.7852486,5.46378279 Z" id="Path"></path>
                    <path d="M19.7064728,1.69541522 C20.2068766,1.54615308 20.7341796,1.80502035 20.9192479,2.27766626 L20.9433183,2.3466204 L25.9024758,18.4554831 C26.0613341,18.9715036 25.7651398,19.5165838 25.2409073,19.6729536 C24.7405035,19.8222158 24.2132005,19.5633485 24.0281322,19.0907026 L24.0040619,19.0217485 L19.0449043,2.91288577 C18.886046,2.39686522 19.1822403,1.85178508 19.7064728,1.69541522 Z" id="Path"></path>
                    <path d="M26.0109637,21.6545948 C26.4593473,21.3992511 27.0247353,21.5348725 27.3100135,21.9535881 L27.3506548,22.0185051 L30.6055815,27.6927181 C30.8746697,28.1618112 30.7111477,28.7594331 30.2403448,29.0275441 C29.7919612,29.2828878 29.2265732,29.1472664 28.941295,28.7285508 L28.9006537,28.6636338 L25.645727,22.9894208 C25.3766388,22.5203277 25.5401608,21.9227058 26.0109637,21.6545948 Z" id="Path"></path>
                    <path d="M31.7422508,27.5878078 C32.3007419,27.5878078 32.7534883,28.0294606 32.7534883,28.5742669 C32.7534883,29.0943092 32.3409652,29.5203626 31.8177207,29.5580202 L31.7422508,29.5607259 L28.2029194,29.5607259 C27.6444283,29.5607259 27.1916819,29.1190732 27.1916819,28.5742669 C27.1916819,28.0542245 27.604205,27.6281712 28.1274496,27.5905135 L28.2029194,27.5878078 L31.7422508,27.5878078 Z" id="Path"></path>
                    <path d="M43.5462175,21.7568816 C43.5385608,24.4367228 45.7550229,26.6152298 48.4968242,26.6227132 C51.2386255,26.6301967 53.4675016,24.4638227 53.4751583,21.7839815 C53.482815,19.1041404 51.2663529,16.9256334 48.5245516,16.9181499 C45.7827503,16.9106665 43.5538742,19.0770405 43.5462175,21.7568816 Z M45.5319283,21.7623338 C45.5365223,20.1544399 46.8738609,18.8546243 48.5189577,18.8591144 C50.1640545,18.8636045 51.4939447,20.1707 51.4893507,21.7785939 C51.4847568,23.3864878 50.1474181,24.6863034 48.5023214,24.6818133 C46.8572246,24.6773232 45.5273343,23.3702277 45.5319283,21.7623338 Z" id="Oval"></path>
                    <path d="M7.51782923,21.759598 C7.51170387,23.903471 9.28487357,25.6462766 11.4783146,25.6522633 C13.6717556,25.65825 15.4548565,23.9251509 15.4609819,21.7812779 C15.4671072,19.637405 13.6939375,17.8945994 11.5004965,17.8886127 C9.30705546,17.8826259 7.52395459,19.6157251 7.51782923,21.759598 Z M9.50355935,21.7650441 C9.50662201,20.693115 10.3981808,19.8265714 11.4949118,19.8295648 C12.5916427,19.8325582 13.478236,20.703955 13.4751733,21.7758841 C13.4721106,22.8478132 12.5805518,23.7143568 11.4838209,23.7113634 C10.38709,23.70837 9.50049669,22.8369732 9.50355935,21.7650441 Z" id="Oval"></path>
                    <path d="M43.4092642,0 L44.6014879,1.55548144 L43.011572,2.72160644 L43.011572,4.05300133 L49.4104034,21.3485967 L47.5420265,22.0104485 L41.0841481,4.55503023 C41.0547073,4.47545274 41.0360538,4.3925693 41.0285672,4.30849593 L41.0248168,4.22410429 L41.0248168,2.23600457 C41.0248168,1.95782324 41.1464976,1.6944005 41.3565809,1.51086331 L41.4222247,1.45826385 L43.4092642,0 Z" id="Path"></path>
                    <path d="M24.0899545,1.65300107 C24.6415371,1.65300107 25.0886832,2.09465384 25.0886832,2.63946014 C25.0886832,3.15950251 24.6812629,3.58555582 24.1644908,3.62321347 L24.0899545,3.6259192 L17.5682561,3.6259192 C17.0166735,3.6259192 16.5695274,3.18426643 16.5695274,2.63946014 C16.5695274,2.11941776 16.9769477,1.69336445 17.4937198,1.6557068 L17.5682561,1.65300107 L24.0899545,1.65300107 Z" id="Path"></path>
                    <path d="M21.7677981,9.39944823 L23.2484611,10.7133127 L13.7437288,20.7499766 L22.5081296,20.7504627 L22.5081296,22.6948413 L11.4607169,22.6948413 C10.6125631,22.6948413 10.1571406,21.747564 10.670986,21.1216961 L10.7203854,21.0657198 L21.7677981,9.39944823 Z" id="Path"></path>
                    <path d="M15.022685,23.7209232 C15.7873426,23.7209232 16.2530745,24.5344537 15.8833758,25.1736759 L15.8449725,25.2349588 L13.8684392,28.1564911 L12.2238641,27.0761081 L13.1758259,25.6681245 L12.0578851,25.6686114 L12.0578851,23.7209232 L15.022685,23.7209232 Z" id="Path"></path>
                    <path d="M7.6673997e-05,21.739128 C-0.0176429608,27.9409923 5.11192834,32.9826364 11.4572948,32.9999553 C17.8026613,33.0172742 22.9609618,28.0037097 22.9786815,21.8018454 C22.9964011,15.5999812 17.8668298,10.5583371 11.5214633,10.5410181 C5.17609681,10.5236992 0.0177963088,15.5372638 7.6673997e-05,21.739128 Z M1.9981938,21.7445586 C2.01283179,16.6212689 6.27404113,12.4796201 11.5158713,12.493927 C16.7577014,12.508234 20.9951778,16.673079 20.9805399,21.7963687 C20.9659019,26.9196583 16.7046925,31.0613072 11.4628624,31.0470002 C6.22103228,31.0326932 1.98355581,26.8678483 1.9981938,21.7445586 Z" id="Oval"></path>
                    <path d="M37.0213494,21.739128 C37.0036297,27.9409923 42.133201,32.9826364 48.4785675,32.9999553 C54.823934,33.0172742 59.9822345,28.0037097 59.9999542,21.8018454 C60.0176738,15.5999812 54.8881025,10.5583371 48.542736,10.5410181 C42.1973695,10.5236992 37.039069,15.5372638 37.0213494,21.739128 Z M39.0194665,21.7445586 C39.0341045,16.6212689 43.2953138,12.4796201 48.5371439,12.493927 C53.7789741,12.508234 58.0164505,16.673079 58.0018125,21.7963687 C57.9871746,26.9196583 53.7259652,31.0613072 48.4841351,31.0470002 C43.242305,31.0326932 39.0048285,26.8678483 39.0194665,21.7445586 Z" id="Oval"></path>
                </g>
            </g>
        </g>
    </g>
</svg>