<?xml version="1.0" encoding="UTF-8"?>
<svg width="77px" height="77px" viewBox="0 0 77 77" version="1.1" xmlns="http://www.w3.org/2000/svg" xmlns:xlink="http://www.w3.org/1999/xlink">
    <title>Group 15</title>
    <g id="Exploration-July-2023" stroke="none" stroke-width="1" fill="none" fill-rule="evenodd">
        <g id="Artboard-Copy-11" transform="translate(-1111.000000, -3288.000000)">
            <g id="Group-15" transform="translate(1111.000000, 3288.000000)">
                <g id="Group-13" fill="#0A404D">
                    <circle id="Oval-Copy-12" cx="38.5" cy="38.5" r="38.5"></circle>
                </g>
                <g id="Group-14" transform="translate(9.000000, 17.016061)" fill="#FFFFFF" fill-rule="nonzero">
                    <ellipse id="Oval" transform="translate(41.905156, 6.151148) rotate(-62.973104) translate(-41.905156, -6.151148) " cx="41.9051561" cy="6.15114764" rx="4.57850708" ry="4.56118934"></ellipse>
                    <path d="M54.7186668,37.2695834 C54.2610678,36.6714903 53.4104938,36.5600795 52.8173099,37.0201095 C50.3079468,38.963109 47.1662138,38.024392 47.1418501,38.0174642 L28.9912332,32.2098484 L32.8726891,25.0966436 C33.3276387,24.2634704 33.1337939,23.2224077 32.4108565,22.6109885 L27.9794829,18.8642155 L29.5639891,17.9171011 C29.5752096,18.0146179 29.592257,18.1120348 29.6181441,18.2084522 C29.8029823,18.8950334 30.3373736,19.4302231 31.020062,19.6135955 L38.8299141,21.7069189 C39.0004514,21.752762 39.1720493,21.7746172 39.3404698,21.7746172 C40.2159402,21.7746172 41.016735,21.1855869 41.2529479,20.2937805 C41.5341782,19.2303265 40.9055139,18.1386212 39.8489131,17.8550336 L35.3449808,16.6476542 L36.8448773,15.1268369 C38.7949572,13.265927 39.2996904,11.1198305 38.1297472,9.65232 C38.0916174,9.60541052 38.0518943,9.56010005 38.0105824,9.51638973 L37.1684801,8.63790831 C37.1081034,8.57500722 37.0440165,8.51637063 36.976224,8.46253116 C35.4187964,7.21433973 33.5363104,7.47327385 32.1906326,8.02872189 C31.3685882,8.26340114 29.3122858,9.19535519 27.0749163,10.4600379 L26.436056,10.7589504 L17.5338858,4.66828319 C17.9772809,3.93192833 18.1453718,3.28456127 17.8994256,3.09142767 C17.6450414,2.89166394 17.0300462,3.24338241 16.4066118,3.89704688 L15.6346502,3.36888479 C15.325548,3.12361071 14.8771869,3.17618389 14.6331624,3.4869575 C14.3891705,3.79769819 14.4417356,4.24896524 14.7504744,4.49490596 L15.5100895,5.07983869 C15.0929764,5.79177177 14.9420005,6.40968708 15.1814236,6.59769078 C15.4220394,6.78665985 15.9852617,6.48458214 16.5730802,5.89845016 L24.5185815,12.0170043 C23.0194455,13.0046626 21.6210683,14.0795756 20.6505983,15.1301032 C19.9438462,15.7241623 19.4941616,16.617704 19.4941616,17.6169895 C19.4941616,18.7841224 20.109685,19.8039638 21.0297417,20.3739055 L26.6988488,24.6163554 L19.7178608,28.8019369 C19.5699293,28.8906567 19.4437144,29.0002004 19.3279911,29.1179415 L1.76727764,23.4990653 C1.05281346,23.2698498 0.291212514,23.668044 0.0640033165,24.3860746 C-0.162676289,25.1046389 0.231894431,25.8717106 0.945299611,26.1003924 L46.3198707,40.6187936 C46.4093775,40.647045 47.4961689,40.9839393 49.0124855,40.9839393 C50.5822959,40.9839393 52.6128782,40.6225232 54.4708019,39.183264 C55.0645121,38.723234 55.1752006,37.8666089 54.7186668,37.2695834 Z M25.3403618,30.6202017 C25.2745891,30.7407389 25.2225193,30.8651419 25.1835929,30.9915437 L24.2838919,30.7036565 L25.7863724,29.8028214 L25.3403618,30.6202017 Z" id="Shape"></path>
                </g>
            </g>
        </g>
    </g>
</svg>