<?xml version="1.0" encoding="UTF-8"?>
<svg width="79px" height="78px" viewBox="0 0 79 78" version="1.1" xmlns="http://www.w3.org/2000/svg" xmlns:xlink="http://www.w3.org/1999/xlink">
    <title>Group 8</title>
    <g id="Exploration-July-2023" stroke="none" stroke-width="1" fill="none" fill-rule="evenodd">
        <g id="Artboard-Copy-11" transform="translate(-468.000000, -3292.000000)">
            <g id="Group-8" transform="translate(468.463298, 3292.774136)">
                <circle id="Oval-Copy-8" fill="#0A404D" cx="39.0367021" cy="38.7258642" r="38.5"></circle>
                <g id="noun-surf-1178183" transform="translate(13.536702, 17.225864)" fill="#FFFFFF" fill-rule="nonzero">
                    <g id="Group" transform="translate(-0.338220, 0.013297)">
                        <path d="M50.242624,28.229357 L50.242624,25.38391 C50.242624,17.0424275 43.3873546,10.2557109 34.9610968,10.2557109 L29.5234982,10.2557109 L29.5234982,8.56967201 C33.1176587,8.0307344 36.3114321,7.11130992 37.3126588,5.62679577 L4.66168676,5.62679577 L4.66168676,6.94465462 L5.13096323,7.14515377 C7.20696773,8.0307344 10.5830649,8.68504876 14.525816,9.00707808 L14.525816,10.2557109 L8.54797963,10.2557109 C4.9766096,10.2557109 2.07186078,13.1314122 2.07186078,16.6665557 L2.07186078,19.4858507 L11.4314919,19.4858507 L11.4314919,21.0242073 L2.07186078,21.0242073 L2.07186078,28.2032049 L1.29646689,28.2032049 C0.581674915,28.2032049 0,28.7790631 0,29.4861943 L0,30.5086887 C0,31.2168456 0.581674915,31.7927037 1.29646689,31.7927037 L2.07186078,31.7927037 L6.02393523,31.7927037 C6.39894203,34.1130583 8.4293656,35.8949881 10.8772691,35.8949881 C13.3251726,35.8949881 15.3555962,34.1130583 15.730603,31.7927037 L33.7350732,31.7927037 C34.11008,34.1130583 36.1405036,35.8949881 38.5884071,35.8949881 C41.0363106,35.8949881 43.0667342,34.1130583 43.441741,31.7927037 L44.5450068,31.7927037 L49.9820875,31.7927037 L50.242624,31.7927037 L50.242624,31.7665517 C50.8331043,31.6465598 51.2785544,31.1286464 51.2785544,30.5086887 L51.2785544,29.4861943 C51.2785544,28.8672622 50.8331043,28.3483232 50.242624,28.229357 Z M16.0797115,9.11219911 C17.397933,9.18809137 18.7627713,9.23013979 20.1545437,9.23013979 C22.3248179,9.23013979 25.1891654,9.10502012 27.9696026,8.77683737 L27.9696026,10.2557109 L16.0797115,10.2557109 L16.0797115,9.11219911 Z M10.8772691,34.3566314 C9.02088185,34.3566314 7.51049534,32.8613488 7.51049534,31.0235254 C7.51049534,29.185702 9.02088185,27.6904194 10.8772691,27.6904194 C12.7336564,27.6904194 14.2440429,29.185702 14.2440429,31.0235254 C14.2440429,32.8613488 12.7336564,34.3566314 10.8772691,34.3566314 Z M15.0209907,19.4007283 L15.0209907,14.956416 C15.0209907,14.3456884 15.5260067,13.8452097 16.1434213,13.8452097 L21.668038,13.8452097 C22.2854525,13.8452097 22.7904686,14.3456884 22.7904686,14.956416 L22.7904686,19.4007283 C22.7904686,20.0114558 22.2854525,20.5114218 21.668038,20.5114218 L16.1434213,20.5114218 C15.5260067,20.5114218 15.0209907,20.0114558 15.0209907,19.4007283 Z M32.6318073,29.7415615 L16.5748863,29.7415615 L16.5748863,28.2032049 L32.6318073,28.2032049 L32.6318073,29.7415615 Z M32.6318073,19.4007283 C32.6318073,20.0114558 32.1267913,20.5114218 31.5093768,20.5114218 L25.98476,20.5114218 C25.3673455,20.5114218 24.8623294,20.0114558 24.8623294,19.4007283 L24.8623294,14.956416 C24.8623294,14.3456884 25.3673455,13.8452097 25.98476,13.8452097 L31.5093768,13.8452097 C32.1267913,13.8452097 32.6318073,14.3456884 32.6318073,14.956416 L32.6318073,19.4007283 Z M38.5884071,34.3566314 C36.7320198,34.3566314 35.2216333,32.8613488 35.2216333,31.0235254 C35.2216333,29.185702 36.7320198,27.6904194 38.5884071,27.6904194 C40.4447943,27.6904194 41.9551809,29.185702 41.9551809,31.0235254 C41.9551809,32.8613488 40.4447943,34.3566314 38.5884071,34.3566314 Z M35.7592812,20.5114218 C35.1786422,20.5114218 34.7036681,20.0114558 34.7036681,19.4007283 L34.7036681,14.956416 C34.7036681,14.3456884 35.1786422,13.8452097 35.7592812,13.8452097 L42.4576071,13.8452097 C44.5382733,15.5702203 46.1698637,17.8695506 47.1348328,20.5114218 L35.7592812,20.5114218 Z" id="Shape"></path>
                        <path d="M20.1545437,0 C13.9027038,0 8.14552067,0.799432663 5.13096323,2.08498602 L4.66168676,2.28599795 L4.66168676,4.08843914 L37.5493689,4.08843914 C36.5010073,0.872760996 25.8998137,0 20.1545437,0 Z" id="Path"></path>
                        <path d="M38.5884071,29.7415615 C37.875169,29.7415615 37.2934941,30.3174197 37.2934941,31.0235254 C37.2934941,31.7296311 37.875169,32.3054893 38.5884071,32.3054893 C39.3016452,32.3054893 39.8833201,31.7296311 39.8833201,31.0235254 C39.8833201,30.3174197 39.3016452,29.7415615 38.5884071,29.7415615 Z" id="Path"></path>
                        <path d="M10.8772691,29.7415615 C10.164031,29.7415615 9.58235612,30.3174197 9.58235612,31.0235254 C9.58235612,31.7296311 10.164031,32.3054893 10.8772691,32.3054893 C11.5905072,32.3054893 12.1721821,31.7296311 12.1721821,31.0235254 C12.1721821,30.3174197 11.5905072,29.7415615 10.8772691,29.7415615 Z" id="Path"></path>
                    </g>
                </g>
            </g>
        </g>
    </g>
</svg>