<?xml version="1.0" encoding="UTF-8"?>
<svg width="78px" height="78px" viewBox="0 0 78 78" version="1.1" xmlns="http://www.w3.org/2000/svg" xmlns:xlink="http://www.w3.org/1999/xlink">
    <title>Group 11</title>
    <g id="Exploration-July-2023" stroke="none" stroke-width="1" fill="none" fill-rule="evenodd">
        <g id="Artboard-Copy-11" transform="translate(-1003.000000, -3285.000000)">
            <g id="Group-11" transform="translate(1003.820821, 3285.558511)">
                <circle id="Oval-Copy-9" fill="#0A404D" cx="37.679179" cy="38.9414894" r="38.5"></circle>
                <g id="noun-travelling-5629222" transform="translate(12.179179, 17.441489)" fill="#FFFFFF" fill-rule="nonzero">
                    <path d="M50.6164467,5.8091812 L34.5205519,2.57540711 C34.3981967,2.57343243 34.275411,2.57407674 34.1531026,2.57540711 L19.2363554,5.57221957 C18.7308723,5.67545329 18.4038187,6.17009045 18.505077,6.6782078 C18.6063353,7.18632515 19.0977295,7.5163539 19.6038141,7.41613843 L33.4008128,4.64433609 C33.4167812,9.32360439 33.3742395,32.6483402 33.4008128,36.5781609 L18.4246572,39.5869155 L18.4246572,28.8682379 C18.9243616,28.8433379 19.4252707,28.8614583 19.9218983,28.9224005 L20.6202645,27.1776671 C19.9050554,26.9859763 19.1619466,26.921648 18.4246384,26.9875994 L18.4246384,15.8575112 C18.4246384,15.3381847 18.0055726,14.9171873 17.4886287,14.9171873 C16.9716848,14.9171873 16.552619,15.3381847 16.552619,15.8575112 L16.552619,26.98759 L15.6074925,26.98759 L15.6074925,28.8682379 L16.5526377,28.8682379 L16.5526377,39.5869155 L1.57648201,36.5781609 L1.57648201,4.64433609 L3.53031808,5.03690254 C3.85864518,5.10395607 4.1976066,4.98958468 4.41907643,4.73702023 C4.64054626,4.48445579 4.71073879,4.13222755 4.60312155,3.81347624 C4.49550432,3.49472493 4.22649456,3.25807676 3.89777678,3.19298367 L1.94394071,2.80041723 C1.39455636,2.69393715 0.826491247,2.83844423 0.393757328,3.19476018 C-0.0389765906,3.55107613 -0.291544835,4.08228394 -0.295471933,4.6443643 L-0.295471933,36.5781609 C-0.293194215,37.473657 0.335483474,38.2441261 1.20909819,38.4220704 L17.304993,41.6558445 C17.4262839,41.6801237 17.5511514,41.6801237 17.6724423,41.6558445 L34.3368881,38.3079432 L49.8816042,41.4308626 C50.4309226,41.5368292 50.9987106,41.3921267 51.4313193,41.0359129 C51.863928,40.6796991 52.1166312,40.1488019 52.1210449,39.5868873 L52.1210449,7.65309067 C52.1187862,6.75757806 51.4900845,5.98709395 50.6164467,5.8091812 Z M50.248988,39.5869155 L35.2728323,36.5781609 L35.2728323,30.4808559 L35.3098608,30.1111299 L35.2728323,30.1073686 L35.2728323,4.64433609 L50.248988,7.65309067 L50.248988,39.5869155 Z" id="Shape"></path>
                    <path d="M6.45293517,8.0856418 L4.40166645,11.1664893 C4.16043355,11.528674 4.11207375,11.9874613 4.27242226,12.392623 C4.49062931,13.0662273 5.27255892,13.199386 5.86739731,13.3139561 C6.26536083,13.4032938 6.68148335,13.2898743 6.98048196,13.0105706 L9.05197238,11.0951744 L12.1469003,11.9244086 L9.70261402,17.1182131 C9.53514506,17.470423 9.5316024,17.8793923 9.69294434,18.2344941 C9.93513651,18.9228494 10.9026898,19.0135784 11.4861839,19.1970321 C11.9750547,19.3287553 12.4944215,19.149291 12.80018,18.7429882 L17.0812013,13.1629528 C18.3690284,13.2253989 19.659507,13.2044024 20.9446618,13.100093 C21.7628263,13.1324727 22.4882943,12.5742226 22.6726739,11.7703819 C22.8570535,10.9665412 22.4482685,10.1441463 21.6989779,9.811497 L19.4648226,8.59598655 C19.0628626,8.37432483 18.6419017,8.18960134 18.2070438,8.04405581 L16.6929916,1.17715885 C16.5871012,0.679372439 16.193509,0.295204424 15.6963663,0.204396676 L14.6816801,0.0245535647 C14.3092403,-0.0316774988 13.9310453,0.079296582 13.6467989,0.328219666 C13.3625524,0.57714275 13.2007826,0.939031957 13.2041367,1.31848229 L13.2234581,7.04914891 L10.0740594,6.47062817 L9.00889998,3.84998455 C8.85564359,3.47163225 8.52901572,3.19227179 8.13361385,3.10136401 C7.54913839,2.95689259 6.77725661,2.72885 6.29734695,3.25249428 C5.98158719,3.55061242 5.83206253,3.98646617 5.89770285,4.41742839 L6.45293517,8.0856418 Z M8.04041037,8.95829457 C8.23999873,8.75458391 8.33240102,8.46787074 8.28967024,8.18487122 L7.97226344,6.08697375 L8.44837365,7.25816754 C8.6487602,7.76449895 9.09257635,8.13211953 9.62435623,8.23225422 L13.5404957,8.95166295 C13.9140004,9.01093974 14.294467,8.90157505 14.5807144,8.65265329 C14.8669618,8.40373153 15.0299753,8.04048389 15.0264033,7.65951233 L15.0070729,1.92441858 L16.4705709,8.53438774 C16.6577792,9.62693646 17.7996388,9.74685908 18.6045271,10.1897082 L20.6408051,11.2976249 L18.3095028,11.4026059 C17.3984371,11.4334961 16.3418759,11.0810765 15.716642,11.9750485 C15.7095563,11.9732341 11.6007164,17.3608797 11.589039,17.3442259 L14.0355131,12.1459375 C14.2038224,11.7920456 14.2065627,11.3809227 14.042986,11.0247848 C13.8893664,10.6865242 13.5938601,10.4350579 13.2371793,10.3390695 L9.39091538,9.30828284 C8.42893525,8.97811687 7.61385502,9.96872364 6.9840023,10.5446679 L8.04041037,8.95829457 Z" id="Shape"></path>
                    <rect id="Rectangle" x="11.2105927" y="26.2904876" width="1" height="1.92294579"></rect>
                    <polygon id="Rectangle" transform="translate(21.794984, 28.638041) rotate(-49.922180) translate(-21.794984, -28.638041) " points="20.8676609 27.7113022 22.7248153 27.7087927 22.7223062 29.5647793 20.8651518 29.5672887"></polygon>
                    <path d="M27.5237032,32.4803234 L27.8304639,32.3725359 L26.8913339,30.7773611 C26.5599144,30.9600084 26.1266803,30.9901047 25.7584172,30.8560634 L24.6343348,32.3785212 C25.5207034,32.7682688 26.5951133,32.8061239 27.5237032,32.4803234 Z" id="Path"></path>
                    <rect id="Rectangle" x="13.1282702" y="26.2904876" width="1.91767744" height="1.92294579"></rect>
                    <polygon id="Rectangle" transform="translate(36.974946, 30.659115) rotate(-84.268530) translate(-36.974946, -30.659115) " points="36.0455685 29.7324836 37.9048301 29.7319774 37.9043241 31.585746 36.0450625 31.5862522"></polygon>
                    <path d="M32.0802592,30.7773611 L32.3050446,28.9754371 C31.4596087,28.8692134 30.6028345,28.8327715 29.7481414,28.8666823 L30.1448049,30.6491586 C30.2582244,30.6052927 31.9221354,30.7741651 32.0802592,30.7773611 Z" id="Path"></path>
                    <polygon id="Rectangle" transform="translate(23.922558, 30.433550) rotate(-49.913170) translate(-23.922558, -30.433550) " points="22.9952358 29.5069825 24.8523894 29.504473 24.8498807 31.3601169 22.9927271 31.3626265"></polygon>
                    <polygon id="Rectangle" transform="translate(28.813639, 30.793243) rotate(-24.468270) translate(-28.813639, -30.793243) " points="27.8874659 29.8651925 29.7417327 29.863273 29.7398128 31.7212934 27.885546 31.7232129"></polygon>
                    <path d="M41.8934319,19.3922052 C42.3861299,19.5062255 42.8690919,19.6696782 43.3367183,19.8806683 L44.4503351,18.1577968 C43.8022694,17.7377557 43.0940592,17.4529668 42.3588043,17.3167405 L41.8934319,19.3922052 Z" id="Path"></path>
                    <polygon id="Rectangle" transform="translate(43.946761, 27.983780) rotate(-51.423210) translate(-43.946761, -27.983780) " points="43.0193646 27.0570934 44.8766405 27.0546102 44.8741577 28.9104659 43.0168818 28.9129491"></polygon>
                    <path d="M41.4766696,29.9712961 C41.4153523,30.0567377 41.3398445,30.1284358 41.254206,30.1825356 L42.2271247,32.0593249 C42.8472519,31.545413 43.3830269,30.9175596 43.8111093,30.2031166 L42.2825011,28.8544153 L41.4766696,29.9712961 Z" id="Path"></path>
                    <path d="M44.3190576,25.4351294 C44.3462423,25.768044 44.0027089,26.0883171 43.8111093,26.3301406 L45.4208608,27.5724514 C46.1252412,26.9043021 46.4664856,25.9557559 46.343247,25.0085237 L44.3095193,25.3120609 C44.3159376,25.352788 44.3191264,25.393931 44.3190576,25.4351294 L44.3190576,25.4351294 Z" id="Path"></path>
                    <polygon id="Rectangle" transform="translate(45.234252, 23.072901) rotate(-16.364280) translate(-45.234252, -23.072901) " points="44.3077773 22.1442846 46.1621033 22.1429078 46.1607265 24.0015184 44.3064005 24.0028952"></polygon>
                    <path d="M43.7137739,21.1626321 L45.7287867,20.5996949 C45.6747521,20.4358529 45.1569809,18.7077892 45.0976436,18.5987044 L43.1718835,19.406995 L43.7137739,21.1626321 Z" id="Path"></path>
                    <path d="M38.6973028,31.8834 C38.7794875,31.8902292 40.5687102,32.0659021 40.5968887,32.0591343 L40.6149802,30.3014044 L38.8825677,30.1363791 L38.6973028,31.8834 Z" id="Path"></path>
                    <polygon id="Rectangle" transform="translate(40.504307, 17.852721) rotate(-75.610960) translate(-40.504307, -17.852721) " points="39.5751281 17.3897102 41.434098 17.388484 41.433485 18.315732 39.5745151 18.3169581"></polygon>
                    <path d="M39.4181804,16.4876688 C39.7465895,16.7384552 40.2044718,16.7384552 40.532881,16.4876688 C40.7375395,16.3318169 42.5326577,14.9066076 42.5326577,12.9710004 C42.5326577,11.7749393 41.4571958,10.9069212 39.9755307,10.9069212 C38.494313,10.9069212 37.4188511,11.7749754 37.4188511,12.9710004 C37.4188511,14.9066076 39.2135218,16.3318169 39.4181804,16.4876688 Z M39.9755307,12.7153494 C40.3924271,12.7153494 40.7063275,12.8703152 40.7063275,12.9709823 C40.6468103,13.5536451 40.3891278,14.0989937 39.9755307,14.5176108 C39.5629169,14.0983688 39.3055366,13.5533261 39.2451813,12.9709823 C39.2451813,12.8703332 39.5590818,12.7153494 39.9755307,12.7153494 Z" id="Shape"></path>
                    <path d="M9.29291072,20.5216502 C7.81112775,20.5216502 6.73601203,21.3897039 6.73601203,22.5857373 C6.73601203,24.5213344 8.53083656,25.946543 8.73551265,26.1024039 C9.06395613,26.3531821 9.52187445,26.3531821 9.85031793,26.1024039 C10.054994,25.946543 11.8498186,24.5213344 11.8498186,22.5857373 C11.8498186,21.3896678 10.7747028,20.5216502 9.29291072,20.5216502 Z M9.29291072,24.1323559 C8.88026223,23.7131173 8.62285984,23.168078 8.5624987,22.5857373 C8.5624987,22.4850702 8.87597861,22.3300955 9.29291072,22.3300955 C9.70984284,22.3300955 10.0233319,22.4850702 10.0233319,22.5857373 C9.96377539,23.1682998 9.70625116,23.7135904 9.29291072,24.1323559 L9.29291072,24.1323559 Z" id="Shape"></path>
                </g>
            </g>
        </g>
    </g>
</svg>