<?xml version="1.0" encoding="UTF-8"?>
<svg width="180px" height="27px" viewBox="0 0 180 27" version="1.1" xmlns="http://www.w3.org/2000/svg" xmlns:xlink="http://www.w3.org/1999/xlink">
    <title>Artboard</title>
    <g id="Artboard" stroke="none" stroke-width="1" fill="none" fill-rule="evenodd">
        <path d="M9.55859375,21.4003906 C11.2317708,21.4003906 12.6054688,20.9088542 13.6796875,19.9257812 C14.7473958,18.9427083 15.4114583,17.6666667 15.671875,16.0976562 L15.671875,16.0976562 L12.6933594,16.0976562 C12.4915365,16.8398438 12.2376302,17.3964844 11.9316406,17.7675781 C11.3782552,18.4576823 10.5742188,18.8027344 9.51953125,18.8027344 C8.49088542,18.8027344 7.64290365,18.4007161 6.97558594,17.5966797 C6.30826823,16.7926432 5.97460938,15.5833333 5.97460938,13.96875 C5.97460938,12.3541667 6.29036458,11.1057943 6.921875,10.2236328 C7.55338542,9.34147135 8.41601562,8.90039062 9.50976562,8.90039062 C10.5839844,8.90039062 11.3945312,9.21289062 11.9414062,9.83789062 C12.2473958,10.1894531 12.4980469,10.7102865 12.6933594,11.4003906 L12.6933594,11.4003906 L15.7011719,11.4003906 C15.655599,10.5019531 15.3235677,9.60677083 14.7050781,8.71484375 C13.5852865,7.12630208 11.8144531,6.33203125 9.39257812,6.33203125 C7.58268229,6.33203125 6.09179688,6.92447917 4.91992188,8.109375 C3.57226562,9.47005208 2.8984375,11.406901 2.8984375,13.9199219 C2.8984375,16.2441406 3.49088542,18.0735677 4.67578125,19.4082031 C5.86067708,20.7363281 7.48828125,21.4003906 9.55859375,21.4003906 Z M40.7035156,21 L40.7035156,18.4121094 L33.5746094,18.4121094 L33.5746094,6.60546875 L30.5667969,6.60546875 L30.5667969,21 L40.7035156,21 Z M57.5125,21 L58.5085938,18.0410156 L63.8113281,18.0410156 L64.7390625,21 L68.0007813,21 L62.903125,6.60546875 L59.5046875,6.60546875 L54.3679688,21 L57.5125,21 Z M62.9714844,15.5605469 L59.3191406,15.5605469 L61.1746094,9.89648438 L62.9714844,15.5605469 Z M87.76875,21.3710938 C89.6046875,21.3710938 91.0255859,20.9365234 92.0314453,20.0673828 C93.0373047,19.1982422 93.5402344,18.1061198 93.5402344,16.7910156 C93.5402344,15.5084635 93.1105469,14.5286458 92.2511719,13.8515625 C91.6977865,13.4153646 90.877474,13.0670573 89.7902344,12.8066406 L89.7902344,12.8066406 L87.3097656,12.2109375 C86.3527344,11.9830729 85.7277344,11.7845052 85.4347656,11.6152344 C84.9790365,11.3613281 84.7511719,10.9772135 84.7511719,10.4628906 C84.7511719,9.90299479 84.9822917,9.46679688 85.4445312,9.15429688 C85.9067708,8.84179688 86.5252604,8.68554688 87.3,8.68554688 C87.9966146,8.68554688 88.5792969,8.80598958 89.0480469,9.046875 C89.7511719,9.41145833 90.128776,10.0266927 90.1808594,10.8925781 L90.1808594,10.8925781 L93.0714844,10.8925781 C93.019401,9.36263021 92.4578776,8.19563802 91.3869141,7.39160156 C90.3159505,6.5875651 89.0220052,6.18554688 87.5050781,6.18554688 C85.6886719,6.18554688 84.3117187,6.61197917 83.3742187,7.46484375 C82.4367187,8.31770833 81.9679687,9.38867188 81.9679687,10.6777344 C81.9679687,12.0904948 82.4529948,13.1289062 83.4230469,13.7929688 C83.9959635,14.1901042 85.0311198,14.5579427 86.5285156,14.8964844 L86.5285156,14.8964844 L88.0519531,15.2382812 C88.9438802,15.4335938 89.5981771,15.6582031 90.0148437,15.9121094 C90.4315104,16.172526 90.6398437,16.5403646 90.6398437,17.015625 C90.6398437,17.8294271 90.2199219,18.3860677 89.3800781,18.6855469 C88.9373698,18.8417969 88.3611979,18.9199219 87.6515625,18.9199219 C86.4666667,18.9199219 85.6300781,18.6236979 85.1417969,18.03125 C84.8748698,17.7057292 84.6958333,17.2141927 84.6046875,16.5566406 L84.6046875,16.5566406 L81.7335937,16.5566406 C81.7335937,18.0540365 82.2707031,19.2307943 83.3449219,20.0869141 C84.4191406,20.9430339 85.89375,21.3710938 87.76875,21.3710938 Z M113.708594,21.3710938 C115.544531,21.3710938 116.96543,20.9365234 117.971289,20.0673828 C118.977148,19.1982422 119.480078,18.1061198 119.480078,16.7910156 C119.480078,15.5084635 119.050391,14.5286458 118.191016,13.8515625 C117.63763,13.4153646 116.817318,13.0670573 115.730078,12.8066406 L115.730078,12.8066406 L113.249609,12.2109375 C112.292578,11.9830729 111.667578,11.7845052 111.374609,11.6152344 C110.91888,11.3613281 110.691016,10.9772135 110.691016,10.4628906 C110.691016,9.90299479 110.922135,9.46679688 111.384375,9.15429688 C111.846615,8.84179688 112.465104,8.68554688 113.239844,8.68554688 C113.936458,8.68554688 114.519141,8.80598958 114.987891,9.046875 C115.691016,9.41145833 116.06862,10.0266927 116.120703,10.8925781 L116.120703,10.8925781 L119.011328,10.8925781 C118.959245,9.36263021 118.397721,8.19563802 117.326758,7.39160156 C116.255794,6.5875651 114.961849,6.18554688 113.444922,6.18554688 C111.628516,6.18554688 110.251563,6.61197917 109.314063,7.46484375 C108.376563,8.31770833 107.907813,9.38867188 107.907813,10.6777344 C107.907813,12.0904948 108.392839,13.1289062 109.362891,13.7929688 C109.935807,14.1901042 110.970964,14.5579427 112.468359,14.8964844 L112.468359,14.8964844 L113.991797,15.2382812 C114.883724,15.4335938 115.538021,15.6582031 115.954688,15.9121094 C116.371354,16.172526 116.579688,16.5403646 116.579688,17.015625 C116.579688,17.8294271 116.159766,18.3860677 115.319922,18.6855469 C114.877214,18.8417969 114.301042,18.9199219 113.591406,18.9199219 C112.40651,18.9199219 111.569922,18.6236979 111.081641,18.03125 C110.814714,17.7057292 110.635677,17.2141927 110.544531,16.5566406 L110.544531,16.5566406 L107.673438,16.5566406 C107.673438,18.0540365 108.210547,19.2307943 109.284766,20.0869141 C110.358984,20.9430339 111.833594,21.3710938 113.708594,21.3710938 Z M145.302734,21 L145.302734,18.4121094 L137.333984,18.4121094 L137.333984,14.7109375 L144.326172,14.7109375 L144.326172,12.2109375 L137.333984,12.2109375 L137.333984,9.15429688 L144.951172,9.15429688 L144.951172,6.60546875 L134.394531,6.60546875 L134.394531,21 L145.302734,21 Z M163.254297,21 L163.254297,15.3554688 L166.359766,15.3554688 C167.245182,15.3554688 167.849023,15.5084635 168.171289,15.8144531 C168.493555,16.1204427 168.661198,16.7324219 168.674219,17.6503906 L168.674219,17.6503906 L168.69375,18.9882812 C168.70026,19.4114583 168.742578,19.8248698 168.820703,20.2285156 C168.859766,20.4238281 168.92487,20.6809896 169.016016,21 L169.016016,21 L172.326562,21 L172.326562,20.6386719 C172.040104,20.4628906 171.857812,20.1894531 171.779687,19.8183594 C171.727604,19.5839844 171.701562,19.1380208 171.701562,18.4804688 L171.701562,18.4804688 L171.701562,17.5136719 C171.701562,16.5045573 171.563216,15.7542318 171.286523,15.2626953 C171.009831,14.7711589 170.539453,14.3919271 169.875391,14.125 C170.669661,13.8515625 171.239323,13.3844401 171.584375,12.7236328 C171.929427,12.0628255 172.101953,11.390625 172.101953,10.7070312 C172.101953,10.140625 172.010807,9.63606771 171.828516,9.19335938 C171.646224,8.75065104 171.398828,8.34700521 171.086328,7.98242188 C170.708724,7.53971354 170.248112,7.20442708 169.704492,6.9765625 C169.160872,6.74869792 168.384505,6.625 167.375391,6.60546875 L167.375391,6.60546875 L160.314844,6.60546875 L160.314844,21 L163.254297,21 Z M166.6625,12.9726562 L163.254297,12.9726562 L163.254297,9.10546875 L166.750391,9.10546875 C167.401432,9.10546875 167.889714,9.19010417 168.215234,9.359375 C168.794661,9.65885417 169.084375,10.2447917 169.084375,11.1171875 C169.084375,11.9244792 168.784896,12.4648438 168.185937,12.7382812 C167.847396,12.8945312 167.339583,12.9726562 166.6625,12.9726562 L166.6625,12.9726562 Z" id="CLASSER" fill="#0A404D" fill-rule="nonzero"></path>
    </g>
</svg>