<?xml version="1.0" encoding="UTF-8"?>
<svg width="92px" height="102px" viewBox="0 0 92 102" version="1.1" xmlns="http://www.w3.org/2000/svg" xmlns:xlink="http://www.w3.org/1999/xlink">
    <title>Group 6</title>
    <g id="Landing-page-iteration--3" stroke="none" stroke-width="1" fill="none" fill-rule="evenodd">
        <g id="Artboard-Copy-9" transform="translate(-258.000000, -1886.000000)">
            <g id="Group-5" transform="translate(226.000000, 1870.000000)">
                <g id="Group-6" transform="translate(32.038835, 16.743999)">
                    <polygon id="Path" fill="#0A404D" points="0 101.217166 77.5350593 101.217166 38.7675297 39.3523047"></polygon>
                    <polygon id="Path-Copy-3" fill="#456B74" transform="translate(64.050701, 79.845669) rotate(-360.000000) translate(-64.050701, -79.845669) " points="37.0819849 101.217166 91.0194175 101.217166 64.0507012 58.474171"></polygon>
                    <path d="M59.2222625,26.8102014 C58.6802633,26.4860158 58.2017796,26.1908252 57.714676,25.9165235 C55.1021461,24.4449503 52.303304,24.162201 49.3767503,24.6693533 L49.3770457,24.6693533 C47.044211,25.1359157 44.758408,25.8065861 42.547009,26.6730208 C40.1291088,27.550145 37.7156699,28.4603766 35.174973,28.9510494 C32.8599076,29.4616833 30.4458637,29.3323564 28.201119,28.5769875 C27.101771,28.1936465 26.0700217,27.6438924 25.1437536,26.9473745 C25.0524878,26.8505241 24.9895696,26.7313448 24.9618118,26.6023149 C24.9482248,26.512717 24.9482248,26.4216642 24.9618118,26.3320663 L24.9618118,6.50324061 L24.9618118,5.97114633 C25.4825409,6.28721093 25.9060761,6.57399103 26.3887185,6.85673292 C28.7463545,8.17605652 31.4941573,8.65886081 34.1716394,8.22452995 C36.4152499,7.84930996 38.6122067,7.24325844 40.7264421,6.41601812 C43.5421461,5.41418437 46.3156576,4.29202071 49.2753301,3.7723974 C51.752587,3.35657997 54.2168384,3.39398543 56.5543611,4.44570302 C57.4011592,4.83222853 58.2143093,5.34776909 59.031618,5.82159132 L59.0313227,5.82159132 C59.121114,5.90365469 59.1858015,6.0089081 59.2176954,6.12518495 C59.2301006,6.18984762 59.2301006,6.2559593 59.2176954,6.3206227 L59.2176954,26.3825365 L59.2176954,26.798354 L59.2222625,26.8102014 Z" id="Path" fill="#BBB59A" fill-rule="nonzero" transform="translate(42.089310, 16.391453) rotate(-13.000000) translate(-42.089310, -16.391453) "></path>
                    <path d="M29.8158751,61.0668642 C29.3862826,61.9651922 28.8860432,62.4962611 28.3151572,62.6600708 C27.7442711,62.8238805 27.1020217,62.6206368 26.3884089,62.0503395 L26.3884089,10.6836139 C26.3884089,10.2063265 26.5688455,9.74898804 26.8903407,9.41155306 C27.211836,9.07411058 27.6475824,8.88472369 28.102285,8.88472369 C28.5567373,8.88472369 28.9927412,9.07411058 29.3139433,9.41155306 C29.6354385,9.74899555 29.8158751,10.2063565 29.8158751,10.6836139 L29.8158751,61.0668642 Z" id="Path" fill="#BBB59A" fill-rule="nonzero" transform="translate(28.102142, 35.799812) rotate(-13.000000) translate(-28.102142, -35.799812) "></path>
                </g>
            </g>
        </g>
    </g>
</svg>