<?xml version="1.0" encoding="UTF-8"?>
<svg width="162px" height="162px" viewBox="0 0 162 162" version="1.1" xmlns="http://www.w3.org/2000/svg" xmlns:xlink="http://www.w3.org/1999/xlink">
    <title>Group 10</title>
    <g id="landing-page" stroke="none" stroke-width="1" fill="none" fill-rule="evenodd">
        <g id="Artboard-Copy" transform="translate(-1221.000000, -1375.000000)">
            <g id="Group-10" transform="translate(1221.000000, 1375.000000)">
                <circle id="Oval-Copy-2" fill="#F6F6F6" cx="81" cy="81" r="81"></circle>
                <g id="noun-check-location-4614770" transform="translate(40.000000, 37.000000)" fill="#0A404D" fill-rule="nonzero">
                    <path d="M83.5637692,11.5233124 L75.4773199,3.40537473 C74.8962527,2.82204494 73.9596382,2.82204494 73.378571,3.40537473 L64.5704519,12.2477923 C57.5428308,4.44934473 47.6104597,0 37.0874337,0 C16.6420761,0 0,16.7063757 0,37.2318507 C0,57.3620784 34.5675296,92.1011672 36.0383103,93.5675965 C36.3285176,93.8589339 36.7036921,94 37.0880026,94 C37.4723131,94 37.8468518,93.8589271 38.137695,93.5675965 C39.6089776,92.1004281 74.1843714,57.3620784 74.1843714,37.2318507 C74.1843714,33.0645374 73.5000485,28.982052 72.1600819,25.0876995 L83.5727713,13.6305696 C84.1440332,13.0472398 84.1440332,12.106323 83.5629671,11.5236483 L83.5637692,11.5233124 Z M71.2145155,37.2320186 C71.2145155,54.2664512 42.9349164,84.3593275 37.088605,90.3980599 C31.2414569,84.3685662 2.96281159,54.2765297 2.96281159,37.2320186 C2.96281159,18.3431325 18.2736554,2.98341935 37.088605,2.98341935 C46.8242027,2.98341935 56.0062917,7.11327399 62.4817425,14.3558894 L36.0110364,40.9195928 L20.1381502,24.9842264 C19.8570956,24.7020773 19.481921,24.5518229 19.0884579,24.5518229 C18.6949948,24.5518229 18.3198035,24.711924 18.0387655,24.9842264 L9.95231621,33.102164 C9.37124907,33.6854938 9.37124907,34.6257555 9.95231621,35.2090853 L34.9606078,60.3147582 C35.2508151,60.6060955 35.6259897,60.7471617 36.0103002,60.7471617 C36.3848222,60.7471617 36.7691494,60.6060888 37.0599925,60.3147582 L69.7903012,27.4569991 C70.7269325,30.6183049 71.2145155,33.8919865 71.2145155,37.2311788 L71.2145155,37.2320186 Z M43.0470237,50.0907391 L36.0101998,57.1549642 L13.100155,34.1557086 L19.0878555,28.1354536 L34.9607417,44.0701482 C35.5418088,44.6534779 36.4784234,44.6534779 37.0594906,44.0701482 L74.4280291,6.56617659 L80.4157296,12.576521 L43.0470237,50.0907391 Z" id="Shape"></path>
                </g>
            </g>
        </g>
    </g>
</svg>