<?xml version="1.0" encoding="UTF-8"?>
<svg width="93px" height="95px" viewBox="0 0 93 95" version="1.1" xmlns="http://www.w3.org/2000/svg" xmlns:xlink="http://www.w3.org/1999/xlink">
    <title>noun-megaphone-383324</title>
    <g id="Landing-page-iteration--3" stroke="none" stroke-width="1" fill="none" fill-rule="evenodd">
        <g id="Artboard-Copy-9" transform="translate(-742.000000, -1901.000000)" fill-rule="nonzero">
            <g id="noun-megaphone-383324" transform="translate(742.695724, 1901.541189)">
                <path d="M88.5825519,30.4073718 C88.1534485,25.6463139 84.5027819,21.920558 79.8868005,20.8859954 C80.2088149,23.6804972 80.5308294,26.681431 80.8528438,29.6832888 C81.2819472,33.7195245 81.4968727,37.5485889 81.7117983,41.2743449 C86.1136402,39.5150525 89.0117128,35.1676904 88.5826669,30.4073718 L88.5825519,30.4073718 Z" id="Path" fill="#BBB59A" transform="translate(84.255733, 31.080170) rotate(-17.000000) translate(-84.255733, -31.080170) "></path>
                <path d="M31.828548,69.6730607 L37.2173302,87.6759728 C38.2538949,91.0515531 41.8803541,92.9952516 45.4034826,91.9721659 C48.8231692,90.9489705 50.7922647,87.3692845 49.755811,83.9935216 L45.7143632,70.6955985 C41.154596,69.9792193 36.5950138,69.6724031 31.9319899,69.6724031 C31.9319899,69.6731166 31.9319899,69.6731166 31.828548,69.6731166 L31.828548,69.6730607 Z" id="Path" fill="#456B74" transform="translate(40.930490, 80.958811) rotate(-17.000000) translate(-40.930490, -80.958811) "></path>
                <path d="M12.4293477,42.7515287 C7.48594904,43.171392 3.77826209,47.688669 4.18985948,52.8362756 L5.22006678,64.1811938 C5.63171935,69.0136637 9.64832504,72.5850245 14.2834855,72.5850245 L15.1075079,72.5850245 C17.9912644,72.2699441 20.874837,72.1651612 23.8621366,72.1651612 C25.303978,72.1651612 26.7458931,72.1651612 28.1877713,72.2699423 L25.8191553,40.5461895 C21.4922331,41.5962135 16.9604318,42.3318699 12.4293661,42.7517707 L12.4293477,42.7515287 Z" id="Path" fill="#456B74" transform="translate(16.173208, 56.565607) rotate(-17.000000) translate(-16.173208, -56.565607) "></path>
                <path d="M78.6212057,39.192788 C76.9505497,21.0358953 74.2361742,6.32288856 72.565686,6.32288856 C72.4615433,6.32288856 72.4615433,6.32288856 72.3566699,6.42697471 L43.2275317,20.9322154 C37.903037,23.5409376 32.3697312,25.7326369 26.7314607,27.2974975 L29.2373794,60.167397 C35.2928992,60.6892905 41.3486054,61.8371469 47.1951277,63.506934 L78.5167816,72.4809383 C78.6209242,72.4809383 78.6209242,72.5850245 78.7257977,72.5850245 C80.290855,72.4809383 80.290855,57.4546222 78.6209261,39.1933806 L78.6212057,39.192788 Z" id="Path" fill="#0A404D" transform="translate(53.309131, 39.453957) rotate(-17.000000) translate(-53.309131, -39.453957) "></path>
            </g>
        </g>
    </g>
</svg>