<?xml version="1.0" encoding="UTF-8"?>
<svg width="76px" height="121px" viewBox="0 0 76 121" version="1.1" xmlns="http://www.w3.org/2000/svg" xmlns:xlink="http://www.w3.org/1999/xlink">
    <title>noun-agility-increase-3257827</title>
    <g id="Landing-page-iteration--3" stroke="none" stroke-width="1" fill="none" fill-rule="evenodd">
        <g id="Artboard-Copy-9" transform="translate(-1307.000000, -1875.000000)" fill-rule="nonzero">
            <g id="noun-agility-increase-3257827" transform="translate(1344.701416, 1935.935754) scale(-1, 1) translate(-1344.701416, -1935.935754) translate(1307.126312, 1875.982734)">
                <path d="M37.816347,0.0271312005 L61.4543276,67.4604392 L40.7458439,74.3057988 C16.4375502,30.5111765 7.69583171,7.14718697 14.5206885,4.21383024 C21.3455452,1.28047352 29.1107647,-0.115092832 37.816347,0.0271312005 Z M72.0836738,99.8237786 L72.0836738,99.8244957 C71.6658611,98.9918431 70.6583423,98.642585 69.8126281,99.0370265 L66.3169556,100.804155 C65.6503146,101.179961 65.3123272,101.950209 65.487074,102.693927 C65.6625425,103.437645 66.3090394,103.976964 67.0742102,104.017116 C67.3374166,104.020702 67.5970146,103.959742 67.8314648,103.84069 L71.2947358,102.138114 L71.2947358,102.137397 C71.7147025,101.943756 72.0376123,101.586604 72.1864747,101.149843 C72.3353354,100.712366 72.298661,100.233286 72.0836389,99.8244873 L72.0836738,99.8237786 Z" id="Shape" fill="#0A404D"></path>
                <path d="M73.8747623,102.694214 L42.7571606,117.832699 C41.1542311,118.610817 39.3918215,119.016571 37.6048486,119.017266 L2.3476252,119.017266 C2.04990476,118.459085 1.78110026,117.886971 1.54193416,117.302349 L37.8900527,117.302349 C38.7832321,117.304437 39.6651232,117.101904 40.4659377,116.710066 L63.6655195,105.469831 L63.6655195,105.469135 C64.4987358,105.064771 64.8423135,104.070191 64.4317107,103.247494 C64.0218123,102.425527 63.0136194,102.087283 62.1796626,102.491647 L39.0270399,113.716559 C38.6890972,113.884988 38.3151767,113.970598 37.9370117,113.965716 L0.608171313,113.965716 C0.398625538,112.939136 0.287170016,111.895165 0.276520966,110.847685 C0.263886991,106.242977 2.10672522,101.822856 5.40000022,98.559258 C8.69327522,95.2958377 13.1663063,93.4576248 17.8340369,93.4492507 C23.1754493,93.4492507 31.835603,97.7213094 31.914711,97.751777 C32.148242,97.8763593 32.4085758,97.9403912 32.6738403,97.9390014 L34.1279095,97.9390014 L34.1272041,97.9390014 C36.2515597,97.9403933 38.2939176,97.1288657 39.8235187,95.6749546 C41.3530836,94.2210257 42.2518439,92.2381718 42.329507,90.1439241 C42.4938926,86.0035353 40.5332687,82.0593152 37.1143421,79.651839 C36.9217377,79.5258652 36.8229612,79.2996619 36.8617746,79.0748607 C36.8956393,78.8451777 37.0621453,78.6565635 37.28791,78.591851 L66.1298034,70.0172659 L75.1696031,99.73121 C75.5230603,100.898387 74.9769987,102.14706 73.8735692,102.693339 L73.8747623,102.694214 Z" id="Path" fill="#BBB59A"></path>
            </g>
        </g>
    </g>
</svg>