<?xml version="1.0" encoding="UTF-8"?>
<svg width="134px" height="134px" viewBox="0 0 134 134" version="1.1" xmlns="http://www.w3.org/2000/svg" xmlns:xlink="http://www.w3.org/1999/xlink">
    <title>Group 4</title>
    <g id="Landing-2024-v1" stroke="none" stroke-width="1" fill="none" fill-rule="evenodd">
        <g id="Artboard-Copy-12" transform="translate(-93.000000, -268.000000)">
            <g id="Group-4" transform="translate(93.392133, 268.607867)">
                <circle id="Oval" fill="#22C55D" transform="translate(66.500000, 66.500000) rotate(-23.000000) translate(-66.500000, -66.500000) " cx="66.5" cy="66.5" r="50.7155088"></circle>
                <g id="noun-recommendation-4145342" transform="translate(26.255709, 30.072709)" fill="#FFFFFF" fill-rule="nonzero">
                    <path d="M25.7010335,31.8318591 L30.7623852,31.8318591 C31.59107,31.8318591 32.2558391,32.4295681 32.2558391,33.1633708 L32.2558391,49.0164526 C32.2558391,49.7539336 31.5919806,50.3470448 30.7623852,50.3470448 L25.7010335,50.3470448 C24.8759913,50.3470448 24.2057583,49.7539336 24.2057583,49.0164526 L24.2057583,33.1633708 C24.206669,32.4304876 24.8759913,31.8318591 25.7010335,31.8318591 Z" id="Path" transform="translate(28.230799, 41.089452) rotate(-23.000000) translate(-28.230799, -41.089452) "></path>
                    <path d="M40.219702,15.056631 C40.8857286,15.0044747 41.6756454,15.398345 42.2047406,16.2885998 C42.7142742,17.1365899 42.8838083,18.5367179 42.8838083,20.3208244 L42.8838083,23.2101058 C42.8838083,25.4582239 43.3439721,25.7208041 45.460353,25.7208041 L52.0535502,25.7208041 C52.6990837,25.7208041 53.2272474,26.0823015 53.4852745,26.7090769 C53.7470276,27.3322552 53.6603975,28.1379807 53.237494,28.7890357 C52.8192479,29.4400907 52.1401803,29.8240693 51.5002359,29.8240693 C50.9851132,29.8240693 50.9851132,30.4472477 51.5002359,30.4472477 C52.1411118,30.4472477 52.6795221,30.8060473 52.9319601,31.4346211 C53.1937132,32.0613965 53.1014941,32.8626258 52.6795221,33.5136808 C52.263139,34.169232 51.5877974,34.5532106 50.942264,34.5532106 C50.5491686,34.5864827 50.5491686,35.144016 50.942264,35.1763889 C51.5877974,35.1763889 52.1215502,35.5369871 52.3795772,36.1592662 C52.6357413,36.78784 52.5491113,37.5935655 52.1271392,38.2401243 C51.7107561,38.8947763 51.0354145,39.2796541 50.3954701,39.2796541 C50.0610596,39.2751579 49.9390323,39.6924086 50.220347,39.8605678 C50.535196,40.0296263 50.6367301,40.3002997 50.7391957,40.5161191 C50.9916338,41.0448765 50.8845106,41.766972 50.5258809,42.341591 C50.1616622,42.9135122 49.5943752,43.2273495 49.0503759,43.2273495 L36.5998709,43.2273495 C35.2771328,43.2273495 34.315819,43.0115302 33.1076561,42.3325985 L31.2390557,41.2885725 C30.1678241,40.6887746 30.2926459,40.3839297 30.2926459,39.2742586 L30.2926459,28.7512674 C30.2926459,27.9266576 30.3857965,27.7540022 30.9679875,27.21895 L36.3371863,22.2964706 C38.2169648,20.5114648 38.5169096,18.2264776 38.7879778,16.6384069 C38.9733474,15.5629072 39.5592645,15.1078881 40.219702,15.056631 Z" id="Path" transform="translate(41.960804, 29.139708) rotate(-23.000000) translate(-41.960804, -29.139708) "></path>
                    <path d="M60.330738,4.33155189 C62.850532,6.66561856 64.0403058,9.33260068 63.9065607,11.7636153 C63.7709581,14.178167 62.3044064,16.3027896 60.0316691,17.2786709 C57.7570744,18.2609544 55.7453258,17.9362704 54.2741301,16.7171047 C52.7936466,15.4869638 51.832354,13.3916085 51.8415752,10.7474914 C51.8472146,10.2097049 52.2530937,10.1420243 52.5577352,10.2517766 C54.5787717,11.0044948 56.2533712,11.6474607 57.6511929,12.929734 C57.045625,9.89416688 58.5251797,6.80280899 59.4836859,4.50715565 C59.6536536,4.10198656 60.0697493,4.08918212 60.330738,4.33155189 Z" id="Path" transform="translate(57.879136, 11.013902) rotate(-23.000000) translate(-57.879136, -11.013902) "></path>
                    <path d="M75.0735358,26.7231666 C75.8199333,30.0865645 75.3232235,32.9913172 73.8988483,34.961175 C72.4878015,36.9208408 70.1775235,37.9002103 67.8405884,37.4619494 C65.5045419,37.0218353 64.0748353,35.6375608 63.5639084,33.7937146 C63.0503158,31.93597 63.416406,29.6381114 64.8549984,27.4199366 C65.1464488,26.9649977 65.512539,27.1345574 65.6929184,27.400479 C66.8924859,29.1525961 67.8779083,30.6239669 68.2982012,32.4770787 C69.4560059,29.5871509 72.3020907,27.8063104 74.3013698,26.4007251 C74.6567972,26.1542613 74.9953417,26.3710754 75.0735358,26.7231666 Z" id="Path" transform="translate(69.381158, 31.930185) rotate(-23.000000) translate(-69.381158, -31.930185) "></path>
                    <path d="M74.212612,41.8364578 C73.4882812,45.3123478 71.8078699,47.7903518 69.6630509,48.9725364 C67.5382258,50.1413522 64.9871635,49.9876109 63.0141117,48.5055831 C61.0401511,47.0235552 60.3021879,45.0736191 60.6093696,43.1246379 C60.912916,41.1546486 62.2188927,39.1856142 64.4809498,37.7818894 C64.9408136,37.49446 65.2052807,37.8229507 65.2616276,38.1504865 C65.6360621,40.3343768 65.9250674,42.1544445 65.5315476,44.0795528 C67.8181429,41.9147608 71.1971418,41.5671718 73.6364191,41.184251 C74.0653829,41.1154971 74.288953,41.4793197 74.212612,41.8364578 Z" id="Path" transform="translate(67.384819, 43.709192) rotate(-23.000000) translate(-67.384819, -43.709192) "></path>
                    <path d="M53.1031861,61.1971702 C53.1031861,62.9703033 51.6606643,64.4153222 49.8812718,64.4153222 C48.1028203,64.4153222 46.6631215,62.9703033 46.6631215,61.1971702 C46.6631215,59.4193363 48.1028203,57.9752576 49.8812718,57.9752576 C51.6606643,57.9752576 53.1031861,59.4193363 53.1031861,61.1971702 Z" id="Path" transform="translate(49.883154, 61.195290) rotate(-23.000000) translate(-49.883154, -61.195290) "></path>
                    <path d="M52.3535592,11.1934695 C48.1233411,9.75820496 47.7526519,6.72372587 47.7526519,1.84457578 C47.7526519,0.844949605 47.9113941,0.742832217 48.6248618,0.903971582 C53.3897446,1.98604116 55.3059898,6.70030445 53.5528478,10.7409677 C53.2615297,11.3977043 52.9074125,11.3836515 52.3535592,11.1934695 Z" id="Path" transform="translate(50.972684, 6.074757) rotate(-23.000000) translate(-50.972684, -6.074757) "></path>
                    <path d="M70.080585,13.9943936 C72.0196452,16.8035954 72.5852044,19.6427985 71.9091336,21.9683448 C71.2414209,24.2847999 69.3404361,26.0312325 66.9026808,26.4912507 C64.4649255,26.9503597 62.5732274,26.206694 61.4123915,24.7057257 C60.242269,23.195666 59.7677193,20.9555776 60.3676393,18.3945673 C60.4930096,17.8727286 60.9099818,17.897275 61.1802244,18.0727365 C62.9799843,19.2327823 64.4742122,20.2164575 65.5533252,21.7601548 C65.635048,18.6827605 67.773772,16.0026547 69.2132085,13.9853023 C69.4713784,13.6298337 69.8809212,13.7016548 70.080585,13.9943936 Z" id="Path" transform="translate(66.145060, 20.185894) rotate(-23.000000) translate(-66.145060, -20.185894) "></path>
                    <path d="M67.7118903,55.5047947 C65.5241915,58.1350991 62.9446662,59.4576659 60.5302159,59.4493638 C58.1311847,59.4335687 55.9525561,58.0869047 54.8723118,55.8718139 C53.7902535,53.6557963 54.007935,51.6334833 55.1453206,50.1079438 C56.2899623,48.5629412 58.316214,47.4971025 60.9329266,47.3756896 C61.4662462,47.3469583 61.5569468,47.751977 61.4571761,48.0670945 C60.8195508,50.1135047 60.2617421,51.8169929 59.061773,53.273948 C62.03766,52.5167392 65.1749942,53.8346719 67.4942088,54.6641724 C67.9050826,54.8152434 67.9386418,55.2286035 67.7118903,55.5047947 Z" id="Path" transform="translate(61.008986, 53.411803) rotate(-23.000000) translate(-61.008986, -53.411803) "></path>
                    <path d="M5.78069494,25.4058467 C3.25403055,27.7399134 2.06922103,30.4068955 2.20396407,32.8379101 C2.33963638,35.2524618 3.8060124,37.3770844 6.08084668,38.3529657 C8.35568097,39.3352493 10.3684633,39.0105652 11.8394856,37.7913995 C13.3216591,36.5612586 14.2843749,34.4659033 14.2685774,31.8217863 C14.2685774,31.2839997 13.8578435,31.2163191 13.5521161,31.3260715 C11.5337583,32.0787897 9.85922748,32.7217555 8.45697056,34.0040288 C9.06656668,30.9684617 7.58067615,27.8771038 6.62632369,25.5814505 C6.45998573,25.1762814 6.04274693,25.163477 5.78069494,25.4058467 Z" id="Path" transform="translate(8.231208, 32.088197) rotate(-23.000000) translate(-8.231208, -32.088197) "></path>
                    <path d="M10.3356808,49.37017 C9.58983606,52.7335679 10.0858806,55.6383206 11.5064525,57.6081785 C12.9190237,59.5678442 15.2330092,60.5472137 17.5709968,60.1089528 C19.9098734,59.6688388 21.3357791,58.2845643 21.8451582,56.440718 C22.3589821,54.5829735 21.9936159,52.2851149 20.5534867,50.06694 C20.261905,49.6120011 19.9009837,49.7815608 19.7196341,50.0474824 C18.5159705,51.7995996 17.5301042,53.2709703 17.1131779,55.1240821 C15.9548517,52.2341543 13.1030402,50.4533139 11.1019718,49.0477286 C10.7526071,48.8012647 10.4085762,49.0180788 10.3356808,49.37017 Z" id="Path" transform="translate(16.028161, 54.577189) rotate(-23.000000) translate(-16.028161, -54.577189) "></path>
                    <path d="M18.3190233,59.7653355 C19.0477269,63.2412255 20.727743,65.7192296 22.8675148,66.9014141 C24.9972919,68.0702299 27.5432114,67.9164886 29.5157993,66.4344608 C31.4938389,64.9524329 32.2270855,63.0024968 31.9236104,61.0535156 C31.6155923,59.0835263 30.3144657,57.1144919 28.0529405,55.7107671 C27.5931848,55.4233377 27.3278713,55.7518284 27.2715376,56.0793642 C26.8980997,58.2632545 26.605528,60.0833222 27.0025897,62.0084305 C24.711989,59.8436385 21.3328759,59.4960495 18.9005324,59.1131287 C18.4707608,59.0443748 18.2427002,59.4081974 18.3190233,59.7653355 Z" id="Path" transform="translate(25.147030, 61.638070) rotate(-23.000000) translate(-25.147030, -61.638070) "></path>
                    <path d="M8.0966837,28.8078055 C12.3193532,27.372541 12.6959414,24.3380619 12.6959414,19.4589118 C12.6959414,18.4592856 12.5364144,18.3571682 11.8242095,18.5183076 C7.05757924,19.6003771 5.14064071,24.3146404 6.89805229,28.3553037 C7.18398037,29.0120403 7.539647,28.9979875 8.0966837,28.8078055 Z" id="Path" transform="translate(9.475909, 23.689093) rotate(-23.000000) translate(-9.475909, -23.689093) "></path>
                    <path d="M5.89094314,37.8995639 C3.95066353,40.7087657 3.3905924,43.5479687 4.06212047,45.8735151 C4.73550617,48.1899702 6.63584703,49.9364028 9.07303884,50.396421 C11.5120883,50.85553 13.3994258,50.1118643 14.5641509,48.6108959 C15.7344488,47.1008363 16.2044255,44.8607478 15.6044157,42.2997376 C15.4836706,41.7778988 15.0666359,41.8024453 14.7972816,41.9779067 C12.9935368,43.1379525 11.5018714,44.1216277 10.4225967,45.6653251 C10.3362175,42.5879308 8.20181707,39.907825 6.7612361,37.8904726 C6.50488513,37.535004 6.09435206,37.606825 5.89094314,37.8995639 Z" id="Path" transform="translate(9.828008, 44.091064) rotate(-23.000000) translate(-9.828008, -44.091064) "></path>
                    <path d="M29.8514037,65.8846713 C32.0385933,68.5149757 34.6211455,69.8375425 37.0341271,69.8292403 C39.4344135,69.8134452 41.6116284,68.4667813 42.692528,66.2516905 C43.7743345,64.0356729 43.5567037,62.0133599 42.4177691,60.4878204 C41.2706734,58.9428177 39.2485205,57.8769791 36.6269761,57.7555662 C36.0937806,57.7268348 36.0094487,58.1318535 36.1037554,58.4469711 C36.7457663,60.4933813 37.2980044,62.1968695 38.503135,63.6538246 C35.5224998,62.8966157 32.3931501,64.2145484 30.0735685,65.0440489 C29.6627903,65.19512 29.6237981,65.60848 29.8514037,65.8846713 Z" id="Path" transform="translate(36.555529, 63.791680) rotate(-23.000000) translate(-36.555529, -63.791680) "></path>
                </g>
            </g>
        </g>
    </g>
</svg>