<svg xmlns="http://www.w3.org/2000/svg" xmlns:xlink="http://www.w3.org/1999/xlink" width="134px" height="134px" viewBox="0 0 134 134" version="1.1">
    <title>Group 5</title>
    <g id="Landing-2024-v1" stroke="none" stroke-width="1" fill="none" fill-rule="evenodd">
        <g id="Artboard-Copy-12" transform="translate(-93.000000, -1132.000000)">
            <g id="Group-5" transform="translate(93.392133, 1132.607867)">
                
                <!-- White circle -->
                <circle id="Oval-Copy" fill="#FFFFFF" transform="translate(66.500000, 66.500000) rotate(-23.000000) translate(-66.500000, -66.500000)" cx="66.5" cy="66.5" r="50.7155088"/>

                <g id="Group-2" transform="translate(40.607867, 34.392133)" fill="#0A404D" fill-rule="nonzero">
                    <path d="M7.38752963,31.1696032 L15.1894331,31.1696032 C16.4668228,31.1696032 17.4915421,32.0909516 17.4915421,33.2220838 L17.4915421,57.6590765 C17.4915421,58.7958786 16.4682266,59.7101397 15.1894331,59.7101397 L7.38752963,59.7101397 C6.11575479,59.7101397 5.0826132,58.7958786 5.0826132,57.6590765 L5.0826132,33.2220838 C5.08401692,32.092369 6.11575479,31.1696032 7.38752963,31.1696032 Z" id="Path" transform="translate(11.287078, 45.439871) rotate(-23.000000) translate(-11.287078, -45.439871) "/>
                    <path d="M29.767569,5.31115314 C30.7942266,5.23075589 32.0118568,5.83789371 32.8274393,7.21019152 C33.6128683,8.51733983 33.8741993,10.67559 33.8741993,13.4257303 L33.8741993,17.8794604 C33.8741993,21.3448589 34.5835263,21.7496175 37.8458564,21.7496175 L48.0090483,21.7496175 C49.0041164,21.7496175 49.818263,22.3068536 50.2160031,23.2730067 C50.6194867,24.2336151 50.4859494,25.475614 49.8340577,26.4791934 C49.1893455,27.4827728 48.1425855,28.0746628 47.1561328,28.0746628 C46.3620885,28.0746628 46.3620885,29.0352713 47.1561328,29.0352713 C48.1440214,29.0352713 48.9739628,29.5883489 49.3630875,30.5572743 C49.7665711,31.5234274 49.6244186,32.7584955 48.9739628,33.7620749 C48.3321223,34.7725851 47.2911059,35.3644751 46.2960378,35.3644751 C45.6900945,35.415763 45.6900945,36.2751819 46.2960378,36.3250836 C47.2911059,36.3250836 48.1138679,36.8809335 48.5116079,37.8401558 C48.9064762,38.8090812 48.7729389,40.0510801 48.1224832,41.0477287 C47.4806427,42.0568527 46.4396263,42.6501289 45.4531735,42.6501289 C44.9376909,42.6431981 44.74959,43.2863761 45.1832272,43.5455879 C45.6685562,43.8061859 45.8250676,44.2234199 45.983015,44.5560981 C46.3721397,45.3711599 46.207013,46.4842459 45.6541974,47.3700017 C45.0927664,48.2515991 44.2183127,48.7353687 43.379756,48.7353687 L24.1877211,48.7353687 C22.1487648,48.7353687 20.6669318,48.4026905 18.8045893,47.3561401 L15.9242046,45.746809 C14.2729372,44.8222407 14.4653458,44.3523327 14.4653458,42.641812 L14.4653458,26.4209747 C14.4653458,25.1498665 14.6089342,24.8837239 15.5063622,24.058959 L23.7828016,16.4711225 C26.6804169,13.7195961 27.1427718,10.197365 27.5606142,7.74940752 C27.8463553,6.09156088 28.7495268,5.39016422 29.767569,5.31115314 Z" id="Path" transform="translate(32.451420, 27.019743) rotate(-23.000000) translate(-32.451420, -27.019743) "/>
                </g>

            </g>
        </g>
    </g>
</svg>
